<svg width="186" height="587" viewBox="0 0 186 587" fill="none" xmlns="http://www.w3.org/2000/svg">
<path d="M-76.8291 243.765C-68.3819 250.809 -56.0208 256.968 -46.8424 265.128C-61.8781 246.536 -81.274 229.762 -87.6931 206.351C-92.4728 188.922 -93.7004 166.273 -86.8195 148.163C-86.7964 146.766 -86.6925 145.38 -86.5578 143.998C-97.6104 167.909 -94.2623 193.271 -85.5573 218.187C-85.2802 218.98 -86.3346 219.477 -86.7426 218.73C-100.135 194.134 -99.5616 163.178 -85.7959 139.052C-85.7689 138.932 -85.7612 138.821 -85.7381 138.701C-115.001 164.941 -104.322 220.832 -76.8291 243.765ZM-38.553 274.824C-37.6756 276.31 -36.8751 277.838 -36.2709 279.47C-41.5547 255.382 -56.0747 230.82 -65.8073 210.758C-73.6195 194.649 -84.6067 174.437 -86.5078 154.876C-92.0803 174.68 -89.017 198.502 -81.4703 215.812C-71.8955 237.783 -51.1911 253.731 -38.4183 273.793C-38.1797 274.174 -38.3067 274.566 -38.553 274.824ZM-56.9983 189.761C-63.0249 178.879 -69.04 168.028 -73.9659 156.6C-75.8901 152.127 -77.3178 147.501 -78.5224 142.797C-78.6186 142.424 -78.684 142.016 -78.734 141.6C-83.5791 172.224 -65.5263 196.351 -49.4439 220.839C-41.6047 232.791 -35.7744 245.505 -35.9053 259.516C-27.0386 237.333 -46.8001 208.16 -56.9983 189.761ZM-80.8007 141.246C-82.1129 143.501 -83.2905 145.853 -84.2834 148.309C-85.0993 174.002 -66.4 201.72 -57.0291 223.657C-51.4797 236.644 -43.9484 250.509 -38.653 264.812C-38.4606 264.516 -38.2951 264.208 -38.1066 263.912C-35.5782 237.937 -54.824 219.642 -67.0811 198.691C-77.1793 181.431 -84.7337 161.219 -80.8007 141.246ZM-80.9392 134.875C-81.3856 135.187 -81.7935 135.522 -82.2284 135.842C-82.7749 137.543 -83.1905 139.26 -83.5215 140.988C-82.2899 138.759 -80.9238 136.631 -79.3729 134.637C-79.673 134.333 -80.1503 134.333 -80.9392 134.875ZM-62.3091 304.998C-60.1425 304.19 -58.9803 302.176 -58.3337 300.079C-58.8456 300.494 -59.4536 300.845 -60.2733 301.01C-61.0661 301.168 -61.7896 300.317 -61.4778 299.563C-60.7659 297.846 -60.0309 296.903 -61.6818 295.602C-63.0903 294.482 -65.1762 294.078 -66.7963 294.936C-69.3748 296.295 -68.0471 301.999 -66.9195 303.705C-65.8458 305.333 -64.0717 305.652 -62.3091 304.998ZM-100.793 270.571C-100.889 269.547 -101.428 269.031 -101.932 268.762C-103.933 267.722 -106.627 268.257 -108.751 269.443C-110.995 270.702 -111.445 272.865 -110.268 275.24C-108.663 278.496 -106.046 278.038 -103.899 276.333C-103.937 276.26 -103.968 276.183 -104.006 276.11C-104.676 274.859 -103.133 273.943 -102.136 274.524C-101.659 273.916 -101.255 273.265 -100.951 272.622C-100.828 271.945 -100.731 271.26 -100.793 270.571ZM-113.554 296.368C-113.658 295.498 -114.078 294.975 -114.374 294.744C-115.144 294.139 -116.544 294.197 -117.229 294.682C-117.661 294.986 -117.938 295.417 -118.003 295.741C-118.215 296.849 -117.818 297.919 -117.299 299.009C-116.756 300.148 -115.582 301.099 -114.305 301.341L-114.17 300.987C-113.997 300.533 -113.589 300.171 -113.127 299.963C-113.423 298.789 -113.416 297.573 -113.554 296.368ZM-4.13295 247.018C-5.26822 242.93 -6.47279 238.842 -7.72353 234.762C-12.5725 245.84 -18.2758 258.731 -17.864 270.798C-13.5269 262.776 -8.95499 254.843 -4.13295 247.018ZM-0.7733 244.458C-0.76561 244.485 -0.757935 244.508 -0.754089 244.539C4.55284 262.815 8.48975 281.002 17.0447 298.027C23.9757 249.612 -24.3948 210.223 -16.7634 163.167C-18.6568 162.57 -19.9922 162.94 -20.3155 164.887C-24.1138 187.832 -10.3481 214.434 -3.45947 235.666C-2.51277 238.596 -1.62379 241.529 -0.7733 244.458ZM19.5847 293.52C20.8123 283.177 21.1471 272.696 20.2158 261.856C17.8568 234.458 5.46111 212.24 -9.27054 189.796C-9.81702 188.953 -8.76259 188.056 -8.05447 188.799C16.3251 214.588 25.2534 251.271 22.6749 286.714C38.6219 245.736 10.6218 199.342 -13.4038 166.789C-13.8963 166.127 -13.55 165.407 -12.9996 165.111C-13.5731 164.737 -14.1273 164.399 -14.6545 164.106C-13.5692 192.09 -2.82065 214.642 8.45898 240.255C16.0788 257.561 21.8783 275.89 18.9728 294.667C19.1806 294.289 19.3846 293.905 19.5847 293.52ZM21.9899 293.97C36.4857 270.852 36.5607 244.169 27.3007 218.241C23.1522 206.628 16.4636 195.997 9.1209 186.174C7.49303 183.995 -2.40117 173.136 -10.2942 167.058C14.9743 197.81 45.1823 253.75 22.1593 292.226C22.0977 292.804 22.0592 293.389 21.9899 293.97ZM23.5023 159.033C24.5876 158.282 25.592 157.478 26.6107 156.689C26.5657 156.508 26.5807 156.3 26.695 156.096C53.058 109.401 55.2993 59.6314 67.6788 9.06464C67.5884 8.31018 67.2159 7.8175 66.2611 7.74823C65.3409 8.27942 64.4227 8.81061 63.5491 9.3764C52.53 32.4177 49.9778 58.4805 46.8644 83.708C43.6729 109.578 33.7541 134.621 23.5023 159.033ZM60.0121 78.0421C60.5335 72.3068 60.923 66.5676 61.2928 60.8285C56.1036 93.8391 49.0695 126.696 30.2409 153.682C51.5321 134.864 57.3513 107.015 60.0121 78.0421ZM56.9995 14.2687C22.2285 43.7651 28.8116 104.04 23.9064 148.455C33.5378 122.8 42.2883 97.3034 45.8977 69.1081C47.9258 53.2418 49.4755 31.0319 56.9995 14.2687ZM14.1469 78.0497C9.69818 98.5659 16.2058 118.562 20.2312 138.701C21.2549 113.57 24.6145 87.8229 29.7752 63.9656C33.7737 45.478 40.9837 24.3652 55.5429 11.5859C33.4943 23.576 19.0421 55.5051 14.1469 78.0497ZM6.57326 369.406C38.5857 343.347 66.6413 308.485 110.42 313.897C73.6557 301.353 37.6386 337.273 11.8032 363.021C9.29791 365.515 6.78879 368.017 4.27579 370.507C5.03777 370.126 5.80743 369.78 6.57326 369.406ZM35.549 372.312C68.7387 372.809 96.9039 345.026 121.108 323.774C101.026 331.592 83.6073 343.247 65.2089 354.472C49.429 364.091 30.1374 373.456 11.149 370.257C11.1298 370.249 11.1221 370.226 11.099 370.219C9.45186 371.004 7.79321 371.762 6.15765 372.563C15.9095 371.462 25.6344 372.17 35.549 372.312ZM124.052 321.195C124.128 321.126 124.206 321.057 124.289 320.991C123.969 320.768 123.653 320.568 123.339 320.36C123.202 320.653 122.974 320.907 122.574 320.922C112.753 321.268 104.034 321.773 95.8244 323.128C79.6916 329.186 65.0404 341.507 50.8421 350.287C39.3658 357.385 26.9775 362.805 14.7781 368.483C37.9211 366.373 55.6314 357.824 75.5137 345.26C90.6953 335.668 106.059 325.106 123.834 321.153C123.918 321.134 123.975 321.184 124.052 321.195ZM37.649 354.749C42.9513 352.07 48.1301 349.229 53.0261 346.026C62.9661 339.521 73.334 331.654 84.3577 325.749C75.1139 328.501 66.201 332.901 56.6535 340.114C50.4676 344.779 44.2125 350.014 37.649 354.749ZM116.185 316.307C93.9787 313.212 75.3979 318.297 55.8643 329.525C39.8696 338.713 28.9932 354.017 14.7165 365.192C33.7814 355.072 49.0488 340.626 67.4683 329.683C77.2051 323.897 87.1267 321.184 97.4392 319.987C103.998 317.781 110.784 316.596 117.854 317.1C117.299 316.811 116.74 316.576 116.185 316.307ZM70.9334 283.281C102.161 247.984 125.52 201.882 175.862 193.518C146.682 196.151 119.643 211.624 98.7996 231.513C82.2619 247.291 77.9267 271.26 64.2226 288.681C66.4985 286.934 68.6948 285.082 70.9334 283.281ZM129.693 263.823C142.548 252.399 150.601 235.797 159.111 221.17C160.422 218.926 163.98 212.155 167.937 205.839C139.475 236.559 108.475 269.097 72.2291 288.573C71.5541 288.935 70.9469 287.915 71.5345 287.453C90.6895 272.284 110.352 258.415 128.408 241.813C142.506 228.842 155.798 215.046 169.311 201.482C132.835 221.821 105.104 257.11 73.4452 285.055C70.9018 287.623 68.2649 290.105 65.5172 292.5C87.1009 282.792 111.2 280.263 129.693 263.823ZM176.283 194.557C132.284 203.441 112.866 238.357 87.5669 269.25C97.1864 260.748 106.558 251.929 115.835 242.914C132.894 226.332 150.903 207.998 172.88 197.94C174.013 196.809 175.149 195.685 176.283 194.557ZM74.3308 218.414C74.4962 218.407 74.6432 218.403 74.7891 218.46C74.9773 218.472 75.1077 218.534 75.3182 218.526C76.0113 218.499 76.5059 218.772 76.8892 219.146C76.9342 219.126 76.945 219.08 76.9915 219.061C79.1516 218.537 80.8218 217.256 82.0018 215.216C81.6034 210.574 79.3052 209.219 75.1035 211.147C71.2113 212.594 70.0329 217.822 74.3308 218.414ZM110.838 137.062C111.295 136.804 111.771 136.584 112.224 136.315C113.121 135.784 114.133 136.607 114.264 137.5C115.95 136.742 116.547 135.357 115.995 133.324C115.251 127.466 104.846 134.49 110.838 137.062ZM123.272 74.0389C123.33 73.9042 123.399 73.781 123.461 73.6425C123.793 72.8995 124.964 73.3229 124.654 74.0928C124.555 74.3391 124.432 74.574 124.331 74.8165C125.873 74.3622 127.389 72.507 128.3 71.4523C128.903 70.7672 129.444 70.0281 129.985 69.2928C129.931 68.55 129.645 67.9649 129.091 67.2952C128.346 66.3829 127.299 65.8363 126.049 65.4783C125.167 65.2243 123.948 65.4206 123.357 65.8748C122.571 66.4868 122.281 68.1189 122.377 69.5392C122.469 70.8865 122.666 72.3376 123.085 73.6232C123.116 73.7271 123.19 73.8773 123.272 74.0389ZM-84.1718 133.297C-84.041 132.951 -83.9602 132.589 -83.8216 132.242C-83.4907 131.4 -82.644 131.253 -81.9937 131.534C-80.9854 130.73 -79.9886 129.91 -78.9072 129.152C-77.6257 128.262 -75.9401 129.09 -76.0017 130.695C-77.0099 158.744 -53.5963 187.028 -41.6163 211.043C-33.4462 227.425 -25.2799 248.026 -36.2517 264.42C-36.3209 265.09 -36.3209 265.744 -36.4248 266.418C-36.5403 267.18 -37.3023 267.345 -37.8333 267.095C-33.9657 278.111 -31.5258 289.359 -32.4841 300.66C-28.4586 291.356 -23.9945 282.203 -19.1879 273.184C-19.2879 273.08 -19.3918 272.98 -19.4149 272.796C-21.2237 257.992 -13.1151 245.794 -8.47009 232.406C-8.92805 230.951 -9.35524 229.488 -9.84399 228.037C-17.256 205.962 -29.1629 180.069 -22.1742 156.554C-21.8125 155.338 -20.3078 155.095 -19.3572 155.699C-8.01599 162.94 2.28232 172.359 10.8719 183.144C13.1425 176.901 15.4669 170.738 17.7952 164.614C17.064 164.41 16.7677 163.221 17.6374 162.724C18.0376 162.497 18.3917 162.239 18.7842 162.004C19.1036 161.169 19.4154 160.345 19.7348 159.514C15.0128 126.553 3.93713 93.6813 15.8748 61.1442C23.614 40.0468 39.0864 13.8299 61.6849 5.78125C63.0473 3.80273 64.5008 1.9436 66.1468 0.280762C67.0038 -0.581482 68.1175 0.734924 67.5899 1.63568C67.0427 2.57104 66.5435 3.52179 66.0325 4.46869C66.228 4.42639 66.4296 4.39941 66.6236 4.35321C67.4368 3.97217 68.2665 3.61414 69.1096 3.27155C69.1143 3.26385 69.1112 3.25238 69.1173 3.24084C69.239 2.76355 69.7562 2.70575 70.141 2.87897C70.8776 2.60181 71.6126 2.32086 72.3781 2.08606C73.6361 1.69348 74.2088 3.74121 73.0469 4.25311C72.6709 4.41864 72.3358 4.61115 71.9675 4.78052C72.0263 5.04224 72.0275 5.3194 71.9374 5.61578C56.0447 56.1749 76.2265 130.507 23.0367 162.004C23.0444 163.925 22.9944 165.846 22.8597 167.767C22.775 168.937 20.9162 169.045 20.7892 167.859C20.7276 167.235 20.6353 166.62 20.5622 166.004C17.826 172.49 15.1013 178.933 12.5229 185.33C17.1102 191.358 21.2087 197.744 24.6222 204.434C36.842 180.088 55.4736 160.415 73.9682 140.595C71.237 139.999 70.2191 137.223 69.4933 134.741C68.5805 131.619 68.4966 127.905 67.4621 124.683C67.4548 124.694 67.4564 124.71 67.4471 124.717C66.724 126.038 65.9093 126.977 64.908 127.689C64.5701 128.158 64.2241 128.62 63.8227 129.028C62.9676 129.895 61.8308 129.575 61.135 128.821C60.771 128.574 60.5185 128.151 60.5458 127.708C60.547 127.685 60.5547 127.662 60.5593 127.635C60.517 127.342 60.5169 127.038 60.6282 126.738C60.657 126.642 60.7109 126.542 60.7425 126.438C61.1169 124.636 62.0278 123.274 63.3944 121.78C63.7373 121.299 64.1383 121.045 64.5535 120.884C65.0511 120.399 65.5757 119.91 66.1452 119.425C66.7167 118.936 67.7719 118.986 68.2261 119.636C70.156 122.439 70.6101 125.945 71.1362 129.236C71.5345 131.723 71.6746 138.163 74.7352 138.959C74.9546 139.013 75.0793 139.156 75.1724 139.31C76.9119 137.443 78.6525 135.572 80.3827 133.694C82.985 124.91 84.9816 115.764 86.2173 106.772C85.9013 106.372 85.787 105.845 86.0968 105.233C86.2846 104.859 86.4728 104.494 86.6529 104.116C86.6741 104.078 86.7057 104.059 86.7314 104.016C86.7869 103.897 86.8438 103.789 86.9208 103.693C87.0201 103.504 87.1236 103.308 87.2244 103.116C77.3779 98.8085 86.6352 80.0321 96.8439 88.7274C98.0615 89.7628 98.4282 91.8145 96.9624 92.8884C93.8132 95.1941 91.6351 95.1748 88.681 93.2348C87.4288 95.321 87.7851 98.8662 90.8292 99.3281C92.3955 99.5706 93.7709 101.58 92.5067 103C91.3464 104.255 90.2323 105.541 89.1605 106.873C88.995 107.069 88.7953 107.204 88.5848 107.304C85.981 112.769 85.5315 121.661 84.3139 127.146C84.0826 128.193 83.779 129.221 83.5173 130.268C89.4569 123.747 95.2429 117.1 100.676 110.194C100.031 109.971 99.754 109.028 100.551 108.655C107.962 105.225 108.394 89.5666 106.946 79.805C106.134 79.5664 105.44 78.9082 105.186 77.9921C104.291 74.8049 104.79 68.881 109.658 70.0897C115.129 71.4484 113.49 78.6926 111.063 81.8912C110.642 82.4532 109.958 82.4301 109.479 82.103C109.698 87.3225 110.14 93.2426 109.381 98.3966C113.778 91.9646 117.806 85.2631 121.284 78.146C119.113 76.5755 118.561 73.2152 118.192 70.6902C117.785 67.8995 118.174 64.8548 120.235 62.78C123.659 59.3389 129.211 61.1057 132.259 64.0619C132.548 64.339 132.747 64.67 132.976 64.9857C133.863 64.5969 135.221 65.5592 134.728 66.6331C134.585 66.9487 134.403 67.249 134.254 67.5646C135.189 71.3984 133.124 75.8557 128.904 76.8142C128.679 76.8642 128.458 76.8373 128.262 76.7526C126.797 78.1884 124.955 79.3585 122.974 78.9312C122.819 78.9005 122.7 78.8274 122.56 78.7812C117.642 89.7783 111.529 99.967 104.602 109.609C114.119 112.2 124 106.28 133.871 103.959C133.276 101.657 133.133 99.3551 133.483 97.8347C133.863 96.2026 136.574 96.1679 137.096 97.7037C137.274 98.5852 137.622 99.3897 138.139 100.113C138.519 100.745 137.93 101.461 137.277 101.53C137.36 102.026 137.476 102.515 137.659 102.996C138.944 102.019 140.403 101.384 141.572 101.488C142.539 101.576 143.303 102.33 143.853 103.35C144.576 103.551 145.225 104.197 145.092 105.006C145.009 105.502 144.872 105.968 144.725 106.438C144.89 108.443 144.4 110.441 142.982 111.087C142.037 111.522 141.165 111.676 140.35 111.626C138.906 112.057 137.284 111.719 135.661 110.175C134.675 109.247 134.519 108.112 134.792 106.973C124.158 109.263 112.863 116.134 103.23 111.476C96.4078 120.776 88.9443 129.64 81.2098 138.34C80.828 139.533 80.479 140.722 80.0718 141.904C79.6974 142.966 78.385 142.666 78.0829 141.835C73.3806 147.07 68.6213 152.27 63.8966 157.505C71.7166 157.031 78.7068 151.65 85.7363 148.602C92.6122 145.615 99.5662 142.874 106.25 139.529C100.573 133.774 106.561 120.348 115.787 124.625C124.498 128.663 122.03 144.483 112.085 141.434C111.185 142.25 110.769 142.478 109.545 143.07C108.545 143.551 107.595 142.974 107.176 142.158C98.5499 146.4 89.6131 149.864 80.798 153.756C74.4885 156.539 69.5218 160.646 62.4473 159.121C49.0018 174.06 35.9565 189.318 25.6652 206.516C30.3567 216.193 33.6609 226.394 35.298 236.736C46.6793 233.576 60.9892 231.228 69.9109 222.806C63.0577 219.165 65.6657 207.051 74.8734 205.346C89.4703 202.64 91.6274 222.591 77.6485 221.247C77.5823 222.729 76.614 224.192 74.848 223.853C74.7741 223.834 74.696 223.834 74.624 223.815C73.8859 223.819 73.1897 223.772 72.5509 223.665C63.6138 232.853 47.6656 237.549 35.5536 238.492C38.4052 258.923 34.6173 279.816 21.4742 298.219C21.1818 300.275 20.8123 302.323 20.4429 304.355C21.024 305.344 21.5897 306.33 22.2054 307.304C23.4562 309.271 20.6584 311.611 19.3807 309.648C18.1377 315.383 16.5945 321.003 14.7857 326.465C22.952 318.351 31.833 310.987 41.6163 304.702C46.0978 301.826 50.4423 298.808 54.7355 295.733C54.5327 295.209 54.5943 294.574 55.125 294.085C68.1341 282.088 73.8497 264.554 81.7586 249.142C87.373 238.191 95.6624 229.92 104.787 221.855C126.685 202.517 155.207 191.451 184.204 189.876C185.689 189.792 186.677 191.493 185.438 192.579C162.182 212.972 153.351 244.35 131.598 266.163C111.547 286.272 81.1043 285.756 57.1315 298.385C56.3064 299.001 55.5021 299.655 54.6739 300.252C31.176 317.192 11.4646 333.116 -5.62613 357.039C-13.219 367.663 -19.8613 378.879 -25.8764 390.423C-19.9498 384.815 -13.2729 380.207 -6.21109 376.119C-6.11487 375.904 -5.97632 375.684 -5.76851 375.488C28.0823 343.536 77.047 282.807 126.866 318.77C126.924 318.72 126.986 318.666 127.043 318.616C127.814 317.962 128.632 318.986 128.162 319.725C128.772 320.187 129.382 320.599 129.993 321.091C131.663 322.427 129.726 325.137 128.044 323.79C127.302 323.197 126.563 322.685 125.821 322.135C108.276 339.618 88.8704 355.676 67.172 367.67C44.1913 380.377 19.781 370.411 -3.98285 378.36C-4.3446 378.479 -4.67941 378.467 -4.99113 378.402C-13.4537 383.186 -21.47 388.691 -28.6164 395.685C-35.2549 408.949 -41.0929 422.629 -46.5114 436.417C-47.1772 438.103 -49.7711 437.141 -49.1438 435.431C-35.355 397.763 -16.4286 358.783 11.8764 329.375C14.1585 321.777 16.1057 314.232 17.5758 306.657C7.00815 288.785 2.02831 269.301 -3.38638 249.697C-17.7755 274.855 -31.4874 300.26 -40.3887 327.974C-40.6465 328.774 -40.8312 329.583 -41.0775 330.383C-27.485 322.169 -17.6716 308.812 -4.56781 299.821C-4.02519 299.447 -3.11697 299.628 -3.0323 300.394C-3.02461 300.506 -3.05156 300.602 -3.04771 300.706C-1.36212 299.667 1.03929 302.119 -0.376907 303.801C-0.511597 303.962 -0.627045 304.055 -0.757904 304.201L-0.754089 304.205C-0.757935 304.205 -0.761749 304.213 -0.765594 304.217C-1.92781 305.521 -3.03232 306.368 -4.34077 306.98C-4.65634 307.323 -4.93344 307.681 -5.12201 308.039C-5.6223 309.567 -7.39639 309.155 -7.89284 308C-8.62787 307.862 -8.97424 306.838 -8.33926 306.31C-7.9852 306.049 -7.69656 305.722 -7.3656 305.444C-6.91919 304.617 -6.31116 303.874 -5.64923 303.173C-4.82953 301.322 -9.09355 305.683 -9.45915 305.995C-13.5538 309.401 -17.2868 313.254 -21.1159 316.957C-27.5389 323.151 -33.9849 329.202 -41.9165 333.328C-50.5138 363.171 -51.4605 394.141 -50.0404 425.016C-49.8672 428.903 -49.7018 432.806 -49.5786 436.713C-49.4555 436.948 -49.39 437.21 -49.4593 437.518L-49.4439 440.99C-49.39 441.24 -49.3939 441.471 -49.4324 441.675C-48.097 493.185 -52.792 545.622 -87.7585 586.412C-89.0939 587.971 -91.7108 586.112 -90.3639 584.526C-65.3263 555.087 -57.1061 521.23 -54.7047 485.941C-63.125 481.41 -64.7836 470.321 -67.8008 461.41C-68.4896 461.579 -69.2362 461.421 -69.7211 460.721C-70.891 459.042 -70.4369 457.245 -69.8096 455.436C-69.4171 454.316 -67.6276 454.169 -67.1888 455.343C-65.3839 460.151 -63.9178 465.032 -62.3284 469.916C-60.7698 474.678 -58.7917 480.278 -54.5238 483.223C-53.7426 470.086 -53.7041 456.76 -53.9004 443.396C-54.4199 443.419 -54.9433 443.238 -55.3166 442.745C-68.6782 424.927 -75.0165 404.669 -79.1074 383.606C-80.0925 383.202 -81.1778 381.489 -81.9975 379.976C-85.5688 373.429 -90.7449 367.917 -95.1821 361.927C-98.9035 356.897 -102.506 351.804 -106.335 346.873C-106.423 347.562 -106.531 348.27 -106.658 349.029C-106.85 350.207 -108.609 350.395 -108.809 349.121C-109.132 347.108 -109.121 345.418 -108.963 343.582C-109.263 343.228 -109.544 342.847 -109.841 342.493C-110.164 342.104 -110.164 341.357 -109.698 341.065C-109.117 340.699 -108.563 340.36 -107.97 340.014C-107.305 339.637 -106.369 340.191 -106.273 340.915C-106.1 342.247 -106.077 343.424 -106.135 344.594C-104.995 345.853 -103.364 347.297 -102.656 348.213C-98.9073 353.078 -95.3822 358.132 -91.7686 363.098C-89.0555 366.82 -86.1345 370.353 -83.2751 373.968C-82.9095 374.433 -81.3279 376.916 -79.9925 378.845C-80.385 376.647 -80.7814 374.449 -81.1393 372.232C-81.6896 371.908 -82.0514 371.266 -81.7512 370.503C-81.6704 370.299 -81.5857 370.103 -81.5049 369.903C-82.6594 362.493 -83.6677 355.037 -84.7144 347.585C-85.03 347.489 -85.2994 347.162 -85.1839 346.792C-85.1108 346.542 -85.0069 346.307 -84.93 346.061C-85.311 343.378 -85.7073 340.699 -86.1114 338.024C-99.0844 332.362 -105.161 319.024 -110.976 306.711C-111.461 306.861 -112.003 306.772 -112.373 306.268C-112.454 306.16 -112.569 306.01 -112.673 305.879C-112.711 305.903 -112.754 305.926 -112.796 305.949C-112.965 306.037 -113.139 306.103 -113.32 306.13C-113.331 306.126 -113.343 306.126 -113.354 306.13C-113.539 306.149 -113.727 306.145 -113.908 306.106C-114.001 306.087 -114.085 306.053 -114.17 306.022C-114.255 305.987 -114.343 305.96 -114.416 305.914C-114.509 305.864 -114.578 305.791 -114.659 305.729C-115.99 305.675 -117.33 305.24 -118.573 304.567C-122.656 302.357 -124.43 295.86 -121.667 292.057C-119.419 288.954 -115.155 288.593 -111.984 290.286C-109.598 291.564 -108.513 294.617 -108.979 297.265C-108.613 297.38 -108.286 297.619 -108.228 298.046C-107.955 300.21 -108.417 302.176 -109.844 303.693C-109.844 303.724 -109.837 303.755 -109.833 303.785C-104.741 315.972 -98.3224 329.683 -86.427 335.984C-87.1582 331.265 -87.9625 326.569 -88.8707 321.907C-93.4542 320.999 -95.9825 316.161 -97.6065 311.518C-97.6143 311.53 -97.6143 311.542 -97.6258 311.557C-98.2723 312.342 -99.6308 312.358 -100.066 311.314C-101.289 308.397 -99.8694 305.579 -98.8034 302.796C-97.976 300.629 -95.1705 301.187 -94.6125 303.185C-94.2507 304.49 -93.8082 305.922 -93.966 307.288C-94.0006 307.596 -94.1237 307.877 -94.2777 308.139C-93.3002 311.495 -92.0572 314.621 -89.8559 317.181C-92.6383 304.155 -96.4213 291.456 -102.344 279.482C-102.671 279.793 -102.964 280.128 -103.333 280.402C-106.092 282.445 -109.602 282.299 -112.103 279.932C-116.075 276.175 -116.425 270.113 -112.196 266.495C-109.148 263.892 -104.06 262.849 -100.358 264.535C-95.5554 266.714 -95.4361 273.819 -99.5423 276.764C-99.7924 276.945 -100.058 276.991 -100.316 276.984C-100.37 277.076 -100.443 277.157 -100.501 277.249C-93.3195 290.833 -89.2171 305.51 -86.3269 320.491C-86.2961 320.579 -86.2846 320.66 -86.2769 320.753C-85.0108 327.366 -83.9486 334.021 -83.0058 340.68C-79.0304 330.73 -73.2347 321.288 -68.8013 311.468C-69.0823 311.341 -69.3016 311.083 -69.2324 310.741C-68.9399 309.317 -68.6474 308.335 -68.0509 307.465C-68.1664 307.396 -68.2779 307.381 -68.3934 307.3C-72.4842 304.482 -73.3578 295.856 -69.6826 292.376C-66.8502 289.697 -62.3283 290.298 -59.3535 292.384C-57.2331 293.866 -56.3826 296.745 -57.3255 298.793C-56.6751 298.774 -55.9323 299.39 -56.1286 300.24C-57.1368 304.563 -60.8467 308.913 -65.1761 308.466C-70.0251 320.722 -75.9671 332.966 -82.4785 344.468C-82.2861 345.838 -82.0899 347.216 -81.9052 348.59C-81.1547 354.083 -80.3735 359.56 -79.5499 365.038C-79.1997 364.183 -78.8687 363.325 -78.5185 362.478C-78.0336 361.319 -76.4712 361.566 -76.1979 362.632C-75.3744 361.489 -74.5508 360.349 -73.7388 359.195C-72.7228 357.755 -68.7975 353.105 -67.6507 349.822C-67.7892 349.872 -67.9277 349.914 -68.1125 349.933C-68.7513 350.007 -69.1477 349.471 -68.9938 348.871C-68.6936 347.685 -68.5435 345.93 -67.566 345.076C-67.7161 344.999 -67.87 344.96 -68.0086 344.872C-71.9301 342.497 -72.4381 337.481 -70.0097 333.909C-67.9278 330.849 -63.9832 328.898 -60.331 329.752C-58.63 330.145 -57.2716 331.669 -56.7674 333.282C-55.94 335.911 -56.8367 338.355 -58.2529 340.584C-58.6339 341.176 -59.6922 340.949 -59.7615 340.237C-59.8962 338.84 -59.9116 336.873 -60.485 335.58C-60.6851 335.133 -60.8121 334.714 -60.966 334.498C-61.2777 334.082 -61.3047 334.156 -61.5087 334.071C-61.5895 334.044 -61.8358 333.998 -62.3707 333.986C-62.0898 333.99 -63.3867 334.206 -63.2866 334.171C-64.3411 334.521 -65.0145 334.979 -65.8381 335.714C-67.1927 336.935 -67.77 338.544 -66.804 340.314C-66.3191 341.211 -64.8645 342.801 -63.7138 342.404C-62.3745 341.931 -61.828 339.81 -61.8165 338.578C-61.8088 337.82 -60.5619 337.581 -60.3233 338.324C-59.6537 340.461 -59.7268 342.666 -61.2585 344.437C-62.3284 345.676 -63.6907 346.011 -65.0722 345.865C-62.8671 348.883 -65.4687 351.804 -67.135 354.602C-70.5678 360.38 -74.5432 365.834 -78.6109 371.173C-77.4333 378.437 -76.1094 385.681 -74.4854 392.875C-72.7075 400.735 -70.1483 408.345 -67.2312 415.835C-64.5219 422.779 -55.7976 430.72 -54.9394 437.96C-54.7663 437.591 -54.5931 437.214 -54.4199 436.844C-54.3468 436.632 -54.1967 436.425 -54.0158 436.267C-54.2544 423.861 -54.5738 411.455 -54.5507 399.153C-54.5007 376.458 -50.8371 354.729 -44.6142 333.771C-44.9182 333.301 -44.899 332.601 -44.2524 332.266C-44.2216 332.246 -44.187 332.219 -44.1485 332.2C-41.5432 323.628 -38.4683 315.194 -35.0702 306.872C-34.0658 301.099 -34.0157 295.167 -34.6469 289.174C-34.8662 289.709 -35.7475 289.632 -35.9053 289.012C-40.9621 269.077 -59.6883 260.136 -75.1743 249.1C-88.5898 239.539 -96.2904 227.075 -101.655 211.647C-111.195 184.191 -106.073 152.389 -84.1718 133.297Z" fill="#F3F2DA"/>
</svg>
