<svg width="207" height="479" viewBox="0 0 207 479" fill="none" xmlns="http://www.w3.org/2000/svg">
<path d="M262.829 243.765C254.382 250.809 242.021 256.968 232.842 265.128C247.878 246.536 267.274 229.762 273.693 206.351C278.473 188.922 279.7 166.273 272.819 148.163C272.796 146.766 272.693 145.38 272.558 143.998C283.61 167.909 280.262 193.271 271.557 218.187C271.28 218.98 272.335 219.477 272.743 218.73C286.135 194.134 285.562 163.178 271.796 139.052C271.769 138.932 271.761 138.821 271.738 138.701C301.001 164.941 290.322 220.832 262.829 243.765ZM224.553 274.824C223.676 276.31 222.875 277.838 222.271 279.47C227.555 255.382 242.075 230.82 251.807 210.758C259.62 194.649 270.607 174.437 272.508 154.876C278.08 174.68 275.017 198.502 267.47 215.812C257.895 237.783 237.191 253.731 224.418 273.793C224.18 274.174 224.307 274.566 224.553 274.824ZM242.998 189.761C249.025 178.879 255.04 168.028 259.966 156.6C261.89 152.127 263.318 147.501 264.522 142.797C264.619 142.424 264.684 142.016 264.734 141.6C269.579 172.224 251.526 196.351 235.444 220.839C227.605 232.791 221.774 245.505 221.905 259.516C213.039 237.333 232.8 208.16 242.998 189.761ZM266.801 141.246C268.113 143.501 269.291 145.853 270.283 148.309C271.099 174.002 252.4 201.72 243.029 223.657C237.48 236.644 229.948 250.509 224.653 264.812C224.461 264.516 224.295 264.208 224.107 263.912C221.578 237.937 240.824 219.642 253.081 198.691C263.179 181.431 270.734 161.219 266.801 141.246ZM266.939 134.875C267.386 135.187 267.794 135.522 268.228 135.842C268.775 137.543 269.19 139.26 269.521 140.988C268.29 138.759 266.924 136.631 265.373 134.637C265.673 134.333 266.15 134.333 266.939 134.875ZM248.309 304.998C246.142 304.19 244.98 302.176 244.334 300.079C244.846 300.494 245.454 300.845 246.273 301.01C247.066 301.168 247.79 300.317 247.478 299.563C246.766 297.846 246.031 296.903 247.682 295.602C249.09 294.482 251.176 294.078 252.796 294.936C255.375 296.295 254.047 301.999 252.919 303.705C251.846 305.333 250.072 305.652 248.309 304.998ZM286.793 270.571C286.889 269.547 287.428 269.031 287.932 268.762C289.933 267.722 292.627 268.257 294.751 269.443C296.995 270.702 297.445 272.865 296.268 275.24C294.663 278.496 292.046 278.038 289.899 276.333C289.937 276.26 289.968 276.183 290.006 276.11C290.676 274.859 289.133 273.943 288.136 274.524C287.659 273.916 287.255 273.265 286.951 272.622C286.828 271.945 286.731 271.26 286.793 270.571ZM299.554 296.368C299.658 295.498 300.078 294.975 300.374 294.744C301.144 294.139 302.544 294.197 303.229 294.682C303.661 294.986 303.938 295.417 304.003 295.741C304.215 296.849 303.818 297.919 303.299 299.009C302.756 300.148 301.582 301.099 300.305 301.341L300.17 300.987C299.997 300.533 299.589 300.171 299.127 299.963C299.423 298.789 299.416 297.573 299.554 296.368ZM190.133 247.018C191.268 242.93 192.473 238.842 193.724 234.762C198.572 245.84 204.276 258.731 203.864 270.798C199.527 262.776 194.955 254.843 190.133 247.018ZM186.773 244.458C186.766 244.485 186.758 244.508 186.754 244.539C181.447 262.815 177.51 281.002 168.955 298.027C162.024 249.612 210.395 210.223 202.763 163.167C204.657 162.57 205.992 162.94 206.315 164.887C210.114 187.832 196.348 214.434 189.459 235.666C188.513 238.596 187.624 241.529 186.773 244.458ZM166.415 293.52C165.188 283.177 164.853 272.696 165.784 261.856C168.143 234.458 180.539 212.24 195.271 189.796C195.817 188.953 194.763 188.056 194.054 188.799C169.675 214.588 160.747 251.271 163.325 286.714C147.378 245.736 175.378 199.342 199.404 166.789C199.896 166.127 199.55 165.407 199 165.111C199.573 164.737 200.127 164.399 200.654 164.106C199.569 192.09 188.821 214.642 177.541 240.255C169.921 257.561 164.122 275.89 167.027 294.667C166.819 294.289 166.615 293.905 166.415 293.52ZM164.01 293.97C149.514 270.852 149.439 244.169 158.699 218.241C162.848 206.628 169.536 195.997 176.879 186.174C178.507 183.995 188.401 173.136 196.294 167.058C171.026 197.81 140.818 253.75 163.841 292.226C163.902 292.804 163.941 293.389 164.01 293.97ZM162.498 159.033C161.412 158.282 160.408 157.478 159.389 156.689C159.434 156.508 159.419 156.3 159.305 156.096C132.942 109.401 130.701 59.6314 118.321 9.06464C118.412 8.31018 118.784 7.8175 119.739 7.74823C120.659 8.27942 121.577 8.81061 122.451 9.3764C133.47 32.4177 136.022 58.4805 139.136 83.708C142.327 109.578 152.246 134.621 162.498 159.033ZM125.988 78.0421C125.466 72.3068 125.077 66.5676 124.707 60.8285C129.896 93.8391 136.93 126.696 155.759 153.682C134.468 134.864 128.649 107.015 125.988 78.0421ZM129 14.2687C163.771 43.7651 157.188 104.04 162.094 148.455C152.462 122.8 143.712 97.3034 140.102 69.1081C138.074 53.2418 136.524 31.0319 129 14.2687ZM171.853 78.0497C176.302 98.5659 169.794 118.562 165.769 138.701C164.745 113.57 161.385 87.8229 156.225 63.9656C152.226 45.478 145.016 24.3652 130.457 11.5859C152.506 23.576 166.958 55.5051 171.853 78.0497ZM179.427 369.406C147.414 343.347 119.359 308.485 75.5802 313.897C112.344 301.353 148.361 337.273 174.197 363.021C176.702 365.515 179.211 368.017 181.724 370.507C180.962 370.126 180.193 369.78 179.427 369.406ZM150.451 372.312C117.261 372.809 89.0961 345.026 64.8916 323.774C84.9741 331.592 102.393 343.247 120.791 354.472C136.571 364.091 155.863 373.456 174.851 370.257C174.87 370.249 174.878 370.226 174.901 370.219C176.548 371.004 178.207 371.762 179.842 372.563C170.091 371.462 160.366 372.17 150.451 372.312ZM61.9484 321.195C61.8718 321.126 61.7937 321.057 61.711 320.991C62.0311 320.768 62.3467 320.568 62.6607 320.36C62.7977 320.653 63.0263 320.907 63.4262 320.922C73.2469 321.268 81.9662 321.773 90.1756 323.128C106.308 329.186 120.96 341.507 135.158 350.287C146.634 357.385 159.023 362.805 171.222 368.483C148.079 366.373 130.369 357.824 110.486 345.26C95.3047 335.668 79.9412 325.106 62.1662 321.153C62.0823 321.134 62.025 321.184 61.9484 321.195ZM148.351 354.749C143.049 352.07 137.87 349.229 132.974 346.026C123.034 339.521 112.666 331.654 101.642 325.749C110.886 328.501 119.799 332.901 129.346 340.114C135.532 344.779 141.788 350.014 148.351 354.749ZM69.8149 316.307C92.0213 313.212 110.602 318.297 130.136 329.525C146.13 338.713 157.007 354.017 171.284 365.192C152.219 355.072 136.951 340.626 118.532 329.683C108.795 323.897 98.8733 321.184 88.5608 319.987C82.002 317.781 75.2161 316.596 68.1462 317.1C68.7012 316.811 69.2603 316.576 69.8149 316.307ZM115.067 283.281C83.8392 247.984 60.4799 201.882 10.1379 193.518C39.3179 196.151 66.3575 211.624 87.2004 231.513C103.738 247.291 108.073 271.26 121.777 288.681C119.501 286.934 117.305 285.082 115.067 283.281ZM56.3066 263.823C43.4519 252.399 35.3991 235.797 26.8888 221.17C25.578 218.926 22.0198 212.155 18.0633 205.839C46.5248 236.559 77.5251 269.097 113.771 288.573C114.446 288.935 115.053 287.915 114.465 287.453C95.3105 272.284 75.6479 258.415 57.592 241.813C43.4942 228.842 30.2022 215.046 16.689 201.482C53.1648 221.821 80.8956 257.11 112.555 285.055C115.098 287.623 117.735 290.105 120.483 292.5C98.8991 282.792 74.7997 280.263 56.3066 263.823ZM9.71686 194.557C53.7163 203.441 73.1341 238.357 98.4331 269.25C88.8136 260.748 79.442 251.929 70.1651 242.914C53.1059 226.332 35.0966 207.998 13.1204 197.94C11.987 196.809 10.8506 195.685 9.71686 194.557ZM111.669 218.414C111.504 218.407 111.357 218.403 111.211 218.46C111.023 218.472 110.892 218.534 110.682 218.526C109.989 218.499 109.494 218.772 109.111 219.146C109.066 219.126 109.055 219.08 109.008 219.061C106.848 218.537 105.178 217.256 103.998 215.216C104.397 210.574 106.695 209.219 110.896 211.147C114.789 212.594 115.967 217.822 111.669 218.414ZM75.1622 137.062C74.7051 136.804 74.2286 136.584 73.776 136.315C72.8786 135.784 71.8669 136.607 71.7364 137.5C70.0496 136.742 69.4528 135.357 70.0046 133.324C70.7485 127.466 81.1542 134.49 75.1622 137.062ZM62.7285 74.0389C62.67 73.9042 62.6007 73.781 62.5391 73.6425C62.207 72.8995 61.0359 73.3229 61.3457 74.0928C61.4446 74.3391 61.5682 74.574 61.6686 74.8165C60.1266 74.3622 58.6111 72.507 57.7002 71.4523C57.0971 70.7672 56.556 70.0281 56.0149 69.2928C56.0692 68.55 56.3547 67.9649 56.9093 67.2952C57.6536 66.3829 58.7011 65.8363 59.9507 65.4783C60.8327 65.2243 62.0519 65.4206 62.643 65.8748C63.4293 66.4868 63.719 68.1189 63.6228 69.5392C63.5312 70.8865 63.3342 72.3376 62.9151 73.6232C62.8836 73.7271 62.8097 73.8773 62.7285 74.0389ZM270.172 133.297C270.041 132.951 269.96 132.589 269.822 132.242C269.491 131.4 268.644 131.253 267.994 131.534C266.985 130.73 265.989 129.91 264.907 129.152C263.626 128.262 261.94 129.09 262.002 130.695C263.01 158.744 239.596 187.028 227.616 211.043C219.446 227.425 211.28 248.026 222.252 264.42C222.321 265.09 222.321 265.744 222.425 266.418C222.54 267.18 223.302 267.345 223.833 267.095C219.966 278.111 217.526 289.359 218.484 300.66C214.459 291.356 209.994 282.203 205.188 273.184C205.288 273.08 205.392 272.98 205.415 272.796C207.224 257.992 199.115 245.794 194.47 232.406C194.928 230.951 195.355 229.488 195.844 228.037C203.256 205.962 215.163 180.069 208.174 156.554C207.812 155.338 206.308 155.095 205.357 155.699C194.016 162.94 183.718 172.359 175.128 183.144C172.858 176.901 170.533 170.738 168.205 164.614C168.936 164.41 169.232 163.221 168.363 162.724C167.962 162.497 167.608 162.239 167.216 162.004C166.896 161.169 166.585 160.345 166.265 159.514C170.987 126.553 182.063 93.6813 170.125 61.1442C162.386 40.0468 146.914 13.8299 124.315 5.78125C122.953 3.80273 121.499 1.9436 119.853 0.280762C118.996 -0.581482 117.882 0.734924 118.41 1.63568C118.957 2.57104 119.456 3.52179 119.968 4.46869C119.772 4.42639 119.57 4.39941 119.376 4.35321C118.563 3.97217 117.734 3.61414 116.89 3.27155C116.886 3.26385 116.889 3.25238 116.883 3.24084C116.761 2.76355 116.244 2.70575 115.859 2.87897C115.122 2.60181 114.387 2.32086 113.622 2.08606C112.364 1.69348 111.791 3.74121 112.953 4.25311C113.329 4.41864 113.664 4.61115 114.033 4.78052C113.974 5.04224 113.973 5.3194 114.063 5.61578C129.955 56.1749 109.774 130.507 162.963 162.004C162.956 163.925 163.006 165.846 163.14 167.767C163.225 168.937 165.084 169.045 165.211 167.859C165.272 167.235 165.365 166.62 165.438 166.004C168.174 172.49 170.899 178.933 173.477 185.33C168.89 191.358 164.791 197.744 161.378 204.434C149.158 180.088 130.526 160.415 112.032 140.595C114.763 139.999 115.781 137.223 116.507 134.741C117.42 131.619 117.503 127.905 118.538 124.683C118.545 124.694 118.544 124.71 118.553 124.717C119.276 126.038 120.091 126.977 121.092 127.689C121.43 128.158 121.776 128.62 122.177 129.028C123.032 129.895 124.169 129.575 124.865 128.821C125.229 128.574 125.482 128.151 125.454 127.708C125.453 127.685 125.445 127.662 125.441 127.635C125.483 127.342 125.483 127.038 125.372 126.738C125.343 126.642 125.289 126.542 125.258 126.438C124.883 124.636 123.972 123.274 122.606 121.78C122.263 121.299 121.862 121.045 121.446 120.884C120.949 120.399 120.424 119.91 119.855 119.425C119.283 118.936 118.228 118.986 117.774 119.636C115.844 122.439 115.39 125.945 114.864 129.236C114.465 131.723 114.325 138.163 111.265 138.959C111.045 139.013 110.921 139.156 110.828 139.31C109.088 137.443 107.347 135.572 105.617 133.694C103.015 124.91 101.018 115.764 99.7827 106.772C100.099 106.372 100.213 105.845 99.9032 105.233C99.7154 104.859 99.5272 104.494 99.3471 104.116C99.3259 104.078 99.2943 104.059 99.2686 104.016C99.2131 103.897 99.1562 103.789 99.0792 103.693C98.9799 103.504 98.8764 103.308 98.7756 103.116C108.622 98.8085 99.3648 80.0321 89.1561 88.7274C87.9385 89.7628 87.5718 91.8145 89.0376 92.8884C92.1868 95.1941 94.3649 95.1748 97.319 93.2348C98.5712 95.321 98.2149 98.8662 95.1708 99.3281C93.6045 99.5706 92.2291 101.58 93.4933 103C94.6536 104.255 95.7677 105.541 96.8395 106.873C97.005 107.069 97.2047 107.204 97.4152 107.304C100.019 112.769 100.469 121.661 101.686 127.146C101.917 128.193 102.221 129.221 102.483 130.268C96.5431 123.747 90.7571 117.1 85.3243 110.194C85.9693 109.971 86.246 109.028 85.449 108.655C78.0381 105.225 77.6064 89.5666 79.0541 79.805C79.8661 79.5664 80.5604 78.9082 80.8144 77.9921C81.7091 74.8049 81.21 68.881 76.3422 70.0897C70.8705 71.4484 72.5103 78.6926 74.9367 81.8912C75.3577 82.4532 76.0416 82.4301 76.5211 82.103C76.3017 87.3225 75.8596 93.2426 76.6189 98.3966C72.2217 91.9646 68.1943 85.2631 64.7158 78.146C66.8867 76.5755 67.4385 73.2152 67.808 70.6902C68.2155 67.8995 67.826 64.8548 65.7652 62.78C62.3405 59.3389 56.7892 61.1057 53.7406 64.0619C53.4519 64.339 53.2533 64.67 53.0236 64.9857C52.1365 64.5969 50.7788 65.5592 51.2722 66.6331C51.415 66.9487 51.5966 67.249 51.7455 67.5646C50.8108 71.3984 52.8762 75.8557 57.096 76.8142C57.3211 76.8642 57.5424 76.8373 57.7379 76.7526C59.2033 78.1884 61.0448 79.3585 63.0263 78.9312C63.181 78.9005 63.3 78.8274 63.4397 78.7812C68.3583 89.7783 74.4707 99.967 81.3978 109.609C71.8807 112.2 61.9996 106.28 52.1288 103.959C52.7242 101.657 52.8669 99.3551 52.5167 97.8347C52.1365 96.2026 49.4261 96.1679 48.9043 97.7037C48.7257 98.5852 48.3782 99.3897 47.861 100.113C47.4808 100.745 48.0699 101.461 48.7226 101.53C48.6399 102.026 48.5241 102.515 48.3409 102.996C47.0555 102.019 45.5973 101.384 44.4278 101.488C43.4611 101.576 42.6972 102.33 42.1473 103.35C41.4242 103.551 40.7745 104.197 40.9085 105.006C40.9912 105.502 41.1278 105.968 41.2752 106.438C41.1097 108.443 41.6 110.441 43.0178 111.087C43.9633 111.522 44.835 111.676 45.6497 111.626C47.0944 112.057 48.7165 111.719 50.3386 110.175C51.3245 109.247 51.4812 108.112 51.2075 106.973C61.8418 109.263 73.1372 116.134 82.7701 111.476C89.5922 120.776 97.0557 129.64 104.79 138.34C105.172 139.533 105.521 140.722 105.928 141.904C106.303 142.966 107.615 142.666 107.917 141.835C112.619 147.07 117.379 152.27 122.103 157.505C114.283 157.031 107.293 151.65 100.264 148.602C93.3878 145.615 86.4338 142.874 79.7503 139.529C85.4267 133.774 79.4389 120.348 70.2132 124.625C61.502 128.663 63.9703 144.483 73.9146 141.434C74.8151 142.25 75.2315 142.478 76.4549 143.07C77.4547 143.551 78.4049 142.974 78.824 142.158C87.4501 146.4 96.3869 149.864 105.202 153.756C111.511 156.539 116.478 160.646 123.553 159.121C136.998 174.06 150.043 189.318 160.335 206.516C155.643 216.193 152.339 226.394 150.702 236.736C139.321 233.576 125.011 231.228 116.089 222.806C122.942 219.165 120.334 207.051 111.127 205.346C96.5297 202.64 94.3726 222.591 108.352 221.247C108.418 222.729 109.386 224.192 111.152 223.853C111.226 223.834 111.304 223.834 111.376 223.815C112.114 223.819 112.81 223.772 113.449 223.665C122.386 232.853 138.334 237.549 150.446 238.492C147.595 258.923 151.383 279.816 164.526 298.219C164.818 300.275 165.188 302.323 165.557 304.355C164.976 305.344 164.41 306.33 163.795 307.304C162.544 309.271 165.342 311.611 166.619 309.648C167.862 315.383 169.406 321.003 171.214 326.465C163.048 318.351 154.167 310.987 144.384 304.702C139.902 301.826 135.558 298.808 131.264 295.733C131.467 295.209 131.406 294.574 130.875 294.085C117.866 282.088 112.15 264.554 104.241 249.142C98.627 238.191 90.3376 229.92 81.2131 221.855C59.3146 202.517 30.793 191.451 1.79609 189.876C0.310995 189.792 -0.676876 191.493 0.561921 192.579C23.8178 212.972 32.6494 244.35 54.4021 266.163C74.4526 286.272 104.896 285.756 128.868 298.385C129.694 299.001 130.498 299.655 131.326 300.252C154.824 317.192 174.535 333.116 191.626 357.039C199.219 367.663 205.861 378.879 211.876 390.423C205.95 384.815 199.273 380.207 192.211 376.119C192.115 375.904 191.976 375.684 191.769 375.488C157.918 343.536 108.953 282.807 59.1341 318.77C59.0756 318.72 59.014 318.666 58.9566 318.616C58.1858 317.962 57.368 318.986 57.8383 319.725C57.2279 320.187 56.6176 320.599 56.0072 321.091C54.3374 322.427 56.2736 325.137 57.9557 323.79C58.6984 323.197 59.4366 322.685 60.1789 322.135C77.7237 339.618 97.1296 355.676 118.828 367.67C141.809 380.377 166.219 370.411 189.983 378.36C190.345 378.479 190.679 378.467 190.991 378.402C199.454 383.186 207.47 388.691 214.616 395.685C221.255 408.949 227.093 422.629 232.511 436.417C233.177 438.103 235.771 437.141 235.144 435.431C221.355 397.763 202.429 358.783 174.124 329.375C171.842 321.777 169.894 314.232 168.424 306.657C178.992 288.785 183.972 269.301 189.386 249.697C203.776 274.855 217.487 300.26 226.389 327.974C226.647 328.774 226.831 329.583 227.078 330.383C213.485 322.169 203.672 308.812 190.568 299.821C190.025 299.447 189.117 299.628 189.032 300.394C189.025 300.506 189.052 300.602 189.048 300.706C187.362 299.667 184.961 302.119 186.377 303.801C186.512 303.962 186.627 304.055 186.758 304.201L186.754 304.205C186.758 304.205 186.762 304.213 186.766 304.217C187.928 305.521 189.032 306.368 190.341 306.98C190.656 307.323 190.933 307.681 191.122 308.039C191.622 309.567 193.396 309.155 193.893 308C194.628 307.862 194.974 306.838 194.339 306.31C193.985 306.049 193.697 305.722 193.366 305.444C192.919 304.617 192.311 303.874 191.649 303.173C190.83 301.322 195.094 305.683 195.459 305.995C199.554 309.401 203.287 313.254 207.116 316.957C213.539 323.151 219.985 329.202 227.916 333.328C236.514 363.171 237.46 394.141 236.04 425.016C235.867 428.903 235.702 432.806 235.579 436.713C235.455 436.948 235.39 437.21 235.459 437.518L235.444 440.99C235.39 441.24 235.394 441.471 235.432 441.675C234.097 493.185 238.792 545.622 273.759 586.412C275.094 587.971 277.711 586.112 276.364 584.526C251.326 555.087 243.106 521.23 240.705 485.941C249.125 481.41 250.784 470.321 253.801 461.41C254.49 461.579 255.236 461.421 255.721 460.721C256.891 459.042 256.437 457.245 255.81 455.436C255.417 454.316 253.628 454.169 253.189 455.343C251.384 460.151 249.918 465.032 248.328 469.916C246.77 474.678 244.792 480.278 240.524 483.223C239.743 470.086 239.704 456.76 239.9 443.396C240.42 443.419 240.943 443.238 241.317 442.745C254.678 424.927 261.017 404.669 265.107 383.606C266.093 383.202 267.178 381.489 267.997 379.976C271.569 373.429 276.745 367.917 281.182 361.927C284.904 356.897 288.506 351.804 292.335 346.873C292.423 347.562 292.531 348.27 292.658 349.029C292.85 350.207 294.609 350.395 294.809 349.121C295.132 347.108 295.121 345.418 294.963 343.582C295.263 343.228 295.544 342.847 295.841 342.493C296.164 342.104 296.164 341.357 295.698 341.065C295.117 340.699 294.563 340.36 293.97 340.014C293.305 339.637 292.369 340.191 292.273 340.915C292.1 342.247 292.077 343.424 292.135 344.594C290.995 345.853 289.364 347.297 288.656 348.213C284.907 353.078 281.382 358.132 277.769 363.098C275.055 366.82 272.134 370.353 269.275 373.968C268.91 374.433 267.328 376.916 265.992 378.845C266.385 376.647 266.781 374.449 267.139 372.232C267.69 371.908 268.051 371.266 267.751 370.503C267.67 370.299 267.586 370.103 267.505 369.903C268.659 362.493 269.668 355.037 270.714 347.585C271.03 347.489 271.299 347.162 271.184 346.792C271.111 346.542 271.007 346.307 270.93 346.061C271.311 343.378 271.707 340.699 272.111 338.024C285.084 332.362 291.161 319.024 296.976 306.711C297.461 306.861 298.003 306.772 298.373 306.268C298.454 306.16 298.569 306.01 298.673 305.879C298.711 305.903 298.754 305.926 298.796 305.949C298.965 306.037 299.139 306.103 299.32 306.13C299.331 306.126 299.343 306.126 299.354 306.13C299.539 306.149 299.727 306.145 299.908 306.106C300.001 306.087 300.085 306.053 300.17 306.022C300.255 305.987 300.343 305.96 300.416 305.914C300.509 305.864 300.578 305.791 300.659 305.729C301.99 305.675 303.33 305.24 304.573 304.567C308.656 302.357 310.43 295.86 307.667 292.057C305.419 288.954 301.155 288.593 297.984 290.286C295.598 291.564 294.513 294.617 294.979 297.265C294.613 297.38 294.286 297.619 294.228 298.046C293.955 300.21 294.417 302.176 295.844 303.693C295.844 303.724 295.837 303.755 295.833 303.785C290.741 315.972 284.322 329.683 272.427 335.984C273.158 331.265 273.962 326.569 274.871 321.907C279.454 320.999 281.983 316.161 283.607 311.518C283.614 311.53 283.614 311.542 283.626 311.557C284.272 312.342 285.631 312.358 286.066 311.314C287.289 308.397 285.869 305.579 284.803 302.796C283.976 300.629 281.171 301.187 280.612 303.185C280.251 304.49 279.808 305.922 279.966 307.288C280.001 307.596 280.124 307.877 280.278 308.139C279.3 311.495 278.057 314.621 275.856 317.181C278.638 304.155 282.421 291.456 288.344 279.482C288.671 279.793 288.964 280.128 289.333 280.402C292.092 282.445 295.602 282.299 298.103 279.932C302.075 276.175 302.425 270.113 298.196 266.495C295.148 263.892 290.06 262.849 286.358 264.535C281.555 266.714 281.436 273.819 285.542 276.764C285.792 276.945 286.058 276.991 286.316 276.984C286.37 277.076 286.443 277.157 286.501 277.249C279.319 290.833 275.217 305.51 272.327 320.491C272.296 320.579 272.285 320.66 272.277 320.753C271.011 327.366 269.949 334.021 269.006 340.68C265.03 330.73 259.235 321.288 254.801 311.468C255.082 311.341 255.302 311.083 255.232 310.741C254.94 309.317 254.647 308.335 254.051 307.465C254.166 307.396 254.278 307.381 254.393 307.3C258.484 304.482 259.358 295.856 255.683 292.376C252.85 289.697 248.328 290.298 245.354 292.384C243.233 293.866 242.383 296.745 243.325 298.793C242.675 298.774 241.932 299.39 242.129 300.24C243.137 304.563 246.847 308.913 251.176 308.466C256.025 320.722 261.967 332.966 268.479 344.468C268.286 345.838 268.09 347.216 267.905 348.59C267.155 354.083 266.373 359.56 265.55 365.038C265.2 364.183 264.869 363.325 264.519 362.478C264.034 361.319 262.471 361.566 262.198 362.632C261.374 361.489 260.551 360.349 259.739 359.195C258.723 357.755 254.798 353.105 253.651 349.822C253.789 349.872 253.928 349.914 254.112 349.933C254.751 350.007 255.148 349.471 254.994 348.871C254.694 347.685 254.544 345.93 253.566 345.076C253.716 344.999 253.87 344.96 254.009 344.872C257.93 342.497 258.438 337.481 256.01 333.909C253.928 330.849 249.983 328.898 246.331 329.752C244.63 330.145 243.272 331.669 242.767 333.282C241.94 335.911 242.837 338.355 244.253 340.584C244.634 341.176 245.692 340.949 245.761 340.237C245.896 338.84 245.912 336.873 246.485 335.58C246.685 335.133 246.812 334.714 246.966 334.498C247.278 334.082 247.305 334.156 247.509 334.071C247.589 334.044 247.836 333.998 248.371 333.986C248.09 333.99 249.387 334.206 249.287 334.171C250.341 334.521 251.015 334.979 251.838 335.714C253.193 336.935 253.77 338.544 252.804 340.314C252.319 341.211 250.864 342.801 249.714 342.404C248.375 341.931 247.828 339.81 247.816 338.578C247.809 337.82 246.562 337.581 246.323 338.324C245.654 340.461 245.727 342.666 247.258 344.437C248.328 345.676 249.691 346.011 251.072 345.865C248.867 348.883 251.469 351.804 253.135 354.602C256.568 360.38 260.543 365.834 264.611 371.173C263.433 378.437 262.109 385.681 260.485 392.875C258.707 400.735 256.148 408.345 253.231 415.835C250.522 422.779 241.798 430.72 240.939 437.96C240.766 437.591 240.593 437.214 240.42 436.844C240.347 436.632 240.197 436.425 240.016 436.267C240.254 423.861 240.574 411.455 240.551 399.153C240.501 376.458 236.837 354.729 230.614 333.771C230.918 333.301 230.899 332.601 230.252 332.266C230.222 332.246 230.187 332.219 230.149 332.2C227.543 323.628 224.468 315.194 221.07 306.872C220.066 301.099 220.016 295.167 220.647 289.174C220.866 289.709 221.748 289.632 221.905 289.012C226.962 269.077 245.688 260.136 261.174 249.1C274.59 239.539 282.29 227.075 287.655 211.647C297.195 184.191 292.073 152.389 270.172 133.297Z" fill="#F3F2DA"/>
</svg>
