<svg width="116" height="69" viewBox="0 0 116 69" fill="none" xmlns="http://www.w3.org/2000/svg">
<path d="M26.4976 39.0487C23.2338 35.588 20.9899 30.4302 19.964 25.8618C19.4176 23.4376 20.3662 23.786 21.4357 24.705C21.8119 25.4884 22.2 26.2692 22.6156 27.0334C22.5128 27.1554 22.466 27.3265 22.5478 27.4862C22.8902 28.1604 22.8571 28.1016 23.3151 28.6693C23.4035 28.7795 23.5292 28.8077 23.6544 28.787C23.8086 29.0254 23.96 29.2609 24.1246 29.4911C25.1689 30.9583 25.8908 32.6562 26.4583 34.3979C26.0144 33.7784 25.6104 33.1885 25.3681 32.8362C23.8047 30.5744 22.4954 28.1765 20.8117 25.9927C20.6193 25.742 20.2203 26.0604 20.3734 26.3234C22.4612 29.9091 24.3159 33.6006 27.1109 36.628C27.2117 37.0122 27.3118 37.3952 27.4061 37.7744C27.7014 38.9597 27.7835 39.6814 27.729 40.0948C27.4216 39.9348 27.0188 39.6022 26.4976 39.0487ZM37.9914 6.21847C39.829 4.63854 41.7452 3.15461 43.813 1.88901C43.9751 1.7916 44.1118 1.71256 44.2488 1.62985C44.7439 1.49889 45.2265 1.40833 45.6507 1.3707C45.3262 1.87325 44.4552 2.75285 43.6906 3.47543C41.0997 5.91341 38.1775 7.69898 35.0277 9.30238C34.8239 9.40552 34.5681 9.54972 34.2931 9.71417C35.4633 8.5151 36.6821 7.34727 37.9914 6.21847ZM37.3263 5.14669C38.5593 4.26837 39.8637 3.495 41.1854 2.75906C41.1858 2.75873 41.189 2.75617 41.1906 2.75493C40.4319 3.3454 39.7367 3.92994 39.157 4.37912C37.2414 5.86777 35.4303 7.43356 33.7339 9.10244C34.7343 7.61949 35.8238 6.21565 37.3263 5.14669ZM46.8034 2.93413C45.8147 4.93783 42.7251 6.33575 40.1832 7.37083C40.7833 6.97692 41.3867 6.59053 41.9706 6.16015C43.2693 5.21125 45.6661 3.49905 47.0497 1.97012C47.0792 2.20675 47.0066 2.5223 46.8034 2.93413ZM47.6118 15.1864C51.7389 14.4303 56.1883 13.5251 59.8494 11.5945C60.3594 11.552 60.868 11.5021 61.3839 11.4906C60.763 11.5068 58.0035 13.101 57.1054 13.5553C56.921 13.6092 56.737 13.661 56.557 13.7147C53.2923 14.6512 49.9148 15.1196 46.5509 15.606C46.9027 15.4642 47.2582 15.3262 47.6118 15.1864ZM46.8577 14.2935C48.0721 13.7866 49.3117 13.3346 50.5399 12.8762C53.2039 11.8857 55.883 10.958 58.4975 9.84349C60.1267 9.1518 61.5994 8.60744 63.3009 8.33606C62.4921 9.09009 61.5228 9.68045 60.58 10.2362C60.2416 10.4354 59.8854 10.6079 59.5346 10.7881C55.1736 11.1682 50.9372 12.8701 46.8295 14.5587C46.5532 14.6138 46.2731 14.6702 45.9996 14.7264C46.2875 14.584 46.5719 14.4393 46.8577 14.2935ZM52.0373 11.5446C54.4881 10.2671 56.9387 9.04754 59.5584 8.14295C59.7408 8.07878 61.5536 7.76534 62.7688 7.66383C61.1904 7.90944 59.653 8.5677 58.1347 9.20409C56.0566 10.0718 53.9513 10.8556 51.847 11.6455C51.9129 11.6139 51.9755 11.5798 52.0373 11.5446ZM63.0334 10.9952C62.9635 11.0487 62.8877 11.095 62.8158 11.145C62.7951 10.9456 62.6213 10.7515 62.4164 10.74C62.06 10.7173 61.7037 10.7131 61.3504 10.7118C62.4287 10.0066 63.4074 9.17782 64.2591 8.21154C66.8737 8.08897 63.3862 10.732 63.0334 10.9952ZM67.0213 20.6743C71.8229 22.1004 76.7612 24.1134 81.7317 23.9639C81.7917 24.0031 81.8556 24.036 81.9178 24.0769C84.4379 25.6173 82.4307 25.2553 81.0951 25.3211C75.9844 25.571 70.217 23.1831 65.6593 20.6437C66.1113 20.664 66.5678 20.6739 67.0213 20.6743ZM79.8482 22.9282C79.2408 22.927 78.7598 22.9263 78.6262 22.9077C76.8564 22.6503 75.1182 22.1625 73.3997 21.6829C72.2209 21.3548 71.0526 20.9928 69.8856 20.6333C71.2818 20.8034 72.6767 20.9864 74.0651 21.2238C76.0611 21.5675 77.9792 22.1478 79.8482 22.9282ZM83.3606 23.1434C83.1916 23.0117 82.3487 22.9603 81.4215 22.9398C77.4149 20.638 72.6458 20.0849 67.9904 19.5542C73.0971 18.3628 79.5715 20.1738 83.3606 23.1434ZM53.164 20.5658C52.8257 20.2825 53.9163 20.7974 54.816 21.1132C54.7125 21.2612 54.6901 21.4556 54.8615 21.6022C54.9267 21.6595 54.9972 21.7193 55.0648 21.7764C54.4348 21.3598 53.8014 20.9578 53.164 20.5658ZM56.4389 21.5273C57.6749 21.8035 58.8959 22.1323 60.1098 22.4939C63.4205 23.4764 67.3124 24.9548 69.3134 27.9431C69.9048 28.8267 68.8337 28.6887 67.6228 28.3401C64.817 25.1259 60.2289 23.4565 56.4389 21.5273ZM65.7018 27.6856C65.3987 27.5699 65.1767 27.4819 65.1101 27.458C63.5702 26.7406 62.1187 25.8293 60.6849 24.9278C60.1007 24.5583 59.5314 24.1652 58.9683 23.7654C61.2913 24.9434 63.6048 26.1424 65.7018 27.6856ZM47.4898 24.4205C47.585 24.4931 47.6868 24.5673 47.7634 24.6444C47.8113 24.6898 47.8606 24.7002 47.9098 24.6953C48.1034 24.9774 48.2001 25.2849 48.0382 25.5538C47.8237 25.9134 47.4114 26.0198 47.0212 25.9575C46.5496 25.8797 46.0674 25.5809 45.7252 25.1935C45.8073 25.1899 45.8899 25.1586 45.963 25.0788C45.7904 25.2627 45.6322 25.0835 45.9241 25.2641C46.0485 25.3409 46.1688 25.4243 46.2907 25.5014C46.5131 25.6452 46.7819 25.8066 47.0553 25.8151C47.8443 25.836 47.7477 24.9236 47.4898 24.4205ZM46.5191 24.7519C46.426 24.6895 46.3099 24.6147 46.1869 24.5436C46.203 24.4918 46.2184 24.4406 46.2054 24.3846C46.2585 24.1847 46.3257 24.0043 46.4339 23.8934C46.7134 23.9649 46.9882 24.0911 47.2389 24.2482C47.1955 24.2638 47.155 24.2906 47.1426 24.348C47.1017 24.54 47.0892 24.735 47.0557 24.9263C47.0429 24.9975 47.0336 25.027 47.0267 25.0443C46.8447 24.9893 46.6682 24.8533 46.5191 24.7519ZM37.1987 22.7586C37.1792 22.8029 37.1655 22.8477 37.1213 22.891C36.66 23.3724 36.1727 22.7838 35.9039 22.2927C36.0278 22.3019 36.149 22.3234 36.2678 22.3502C36.3768 22.4697 36.4901 22.5773 36.6213 22.6351C36.6926 22.6638 36.7977 22.6624 36.8358 22.5779C36.8402 22.5676 36.8353 22.5579 36.8397 22.5494C36.9627 22.6102 37.0829 22.6784 37.1987 22.7586ZM67.2207 37.1396C67.0665 37.2359 66.9015 37.3152 66.7348 37.3907C66.6354 37.121 66.7988 36.8153 67.0136 36.6066C67.0177 36.6084 67.0206 36.6129 67.0251 36.6145C67.2557 36.6839 67.4655 36.7883 67.6792 36.8999C67.8817 37.0051 68.0497 36.7144 67.8574 36.5894C67.7981 36.5513 67.7507 36.5054 67.695 36.4679C67.9452 36.4215 68.1968 36.4352 68.457 36.5848C68.7439 36.7524 69.0103 37.1673 68.7566 37.4678C68.5073 37.7614 67.8284 37.9169 67.3124 37.8062C67.3844 37.7646 67.4639 37.7392 67.5339 37.6925C67.8667 37.4654 67.5738 36.9254 67.2207 37.1396ZM75.5769 43.8405C75.9538 43.7825 76.336 43.7236 76.7027 43.6652C76.7441 43.6597 76.7859 43.6522 76.8285 43.644C76.8747 43.7519 76.9564 43.8437 77.0951 43.8379C79.4657 43.7415 81.8224 43.493 84.1948 43.4377C85.9094 43.3989 91.2641 44.2354 91.3444 45.4002C89.6858 45.9758 87.5393 46.4779 87.42 46.4821C84.9128 46.6014 82.3829 46.1083 79.9346 45.6374C78.8254 45.426 77.725 45.182 76.6225 44.9346C80.1784 45.1477 83.7533 45.2404 87.2567 45.6206C87.5265 45.6488 87.5878 45.1876 87.3166 45.1469C83.5025 44.5788 79.5273 44.0615 75.5769 43.8405ZM89.5913 42.9689C90.7995 43.1888 91.9619 43.5333 93.0449 44.0645C93.4934 44.2846 93.2105 44.581 92.5969 44.8905C91.8001 43.9923 90.7729 43.3695 89.5913 42.9689ZM89.8993 50.9019C89.928 50.7162 90.2338 50.5563 90.3728 50.4703C90.645 50.298 90.9648 50.1712 91.2937 50.1068C91.3967 50.1886 91.4941 50.2884 91.5715 50.4159C91.8592 50.9005 91.5562 51.121 91.1708 51.1994C91.2411 50.9842 91.0936 50.7065 90.8227 50.7998C90.5634 50.8907 90.2957 50.9644 90.0277 51.035C89.9524 50.9926 89.8914 50.9489 89.8993 50.9019ZM101.952 54.6576C104.372 54.5847 106.788 54.7905 109.165 55.2462C110.115 55.4273 117.34 57.7122 113.379 59.2104C113.271 59.2499 113.154 59.2661 113.045 59.3042C111.027 57.9589 108.571 57.3686 105.972 57.0777C106.005 57.0786 106.037 57.0808 106.068 57.08C106.283 57.0922 106.458 57.0945 106.627 57.0989C107.504 57.1983 108.384 57.3005 109.253 57.3956C109.701 57.4442 109.692 56.7513 109.253 56.6976C108.157 56.5669 107.066 56.4843 105.972 56.4216C105.503 56.3283 105.042 56.2539 104.729 56.224C100.802 55.8368 96.8702 55.6523 92.9303 55.4435C95.9184 55.0073 98.9433 54.7478 101.952 54.6576ZM113.406 60.9955C110.759 61.6957 107.72 61.183 105.113 60.6501C103.666 60.3543 102.245 59.901 100.852 59.385C104.779 60.5112 109.034 61.0683 112.491 60.0934C113.297 60.5275 113.78 60.8971 113.406 60.9955ZM95.4505 56.221C96.8327 56.2442 98.2211 56.3084 99.6117 56.4132C99.4615 56.4213 99.4105 56.5432 99.4328 56.6513C98.0561 56.5694 96.7159 56.4452 95.4505 56.221ZM99.5925 57.874C99.7626 57.913 99.8323 57.6609 99.6618 57.6138C99.5236 57.5784 99.3867 57.532 99.2508 57.4966C102.211 57.7737 105.205 57.8296 108.146 58.3082C108.66 58.3924 110.293 59.0254 111.627 59.6593C108.257 60.2361 104.333 59.2971 101.24 58.556C99.7765 58.2061 98.3429 57.736 96.9251 57.2347C97.8099 57.4603 98.6947 57.6825 99.5925 57.874ZM81.3344 56.6226C84.3595 58.9722 87.7161 60.9293 90.4989 63.5704C94.0347 66.9285 87.6891 64.8748 86.9849 64.5049C85.8047 63.884 84.7007 63.1011 83.6351 62.2792C82.2369 60.8654 80.7942 59.4936 79.3323 58.1286C79.3195 58.1148 79.3063 58.0981 79.2952 58.0848C78.0995 56.71 76.9395 55.3324 75.8253 53.9119C76.3012 54.3618 76.7931 54.7973 77.2911 55.2281C77.7534 55.7278 78.2028 56.2105 78.6065 56.6494C81.6243 59.9357 84.7047 62.753 88.8631 64.4372C89.1289 64.5468 89.3618 64.1879 89.2265 63.9668C88.7411 63.183 88.938 63.4267 88.2398 62.7633C88.0059 62.542 87.678 62.8705 87.8861 63.1106C87.1634 63.2887 86.5296 63.0111 85.9845 62.2811C83.9204 61.089 82.1401 59.1854 80.4643 57.4981C80.2993 57.3345 80.1437 57.16 79.982 56.9939C80.0957 56.8429 80.1162 56.5957 79.9212 56.4472C80.3312 56.7589 77.9204 54.529 76.5431 53.3282C76.3706 53.145 76.1977 52.9656 76.0235 52.782C77.931 53.6985 79.7608 55.4017 81.3344 56.6226ZM70.5123 56.9004C70.7941 57.3337 73.2379 63.3869 71.1991 62.3141C70.3214 61.8519 69.5824 60.9336 68.9191 60.2155C67.5035 58.683 66.2403 57.0081 65.0216 55.3066C64.0666 53.7128 63.1403 52.1015 62.3239 50.4187C62.311 50.3915 62.304 50.375 62.2907 50.3481C64.0451 52.945 65.7218 55.5572 67.336 58.1102C67.5114 58.3862 67.9416 58.1468 67.7817 57.8586C67.6292 57.5865 67.4711 57.3105 67.3149 57.0328C68.3531 58.4488 69.3815 59.8674 70.3899 61.3001C70.6247 61.6328 71.1744 61.3348 70.9489 60.9844C68.2677 56.831 65.2009 52.9548 62.3594 48.9178C60.8905 46.6952 59.3261 44.4885 57.6764 42.3611C62.6697 46.2826 67.1483 51.7401 70.5123 56.9004ZM60.722 49.0537C59.5756 47.1234 58.4239 45.1906 57.2362 43.2744C58.3614 44.7491 59.457 46.2522 60.5225 47.7723C60.805 48.5889 61.1173 49.382 61.4529 50.1652C61.2073 49.7968 60.9664 49.4247 60.722 49.0537ZM45.3068 34.9777C45.1693 34.9724 45.0707 35.176 45.186 35.2701C45.4189 35.4634 45.4726 35.5161 45.7223 35.6434C45.856 35.7111 46.0443 35.6848 46.1166 35.536C46.1633 35.4447 46.2079 35.3517 46.2567 35.2605C46.5446 35.5208 46.7981 35.81 46.9777 36.1897C46.0151 36.4639 45.2811 35.6469 44.8245 34.8046C45.1153 34.7484 45.3956 34.7462 45.659 34.8338C45.6998 34.9341 45.6254 34.9962 45.3068 34.9777ZM37.9632 34.7974C38.3784 37.976 40.5356 41.1908 42.2494 43.7161C41.9799 43.7471 41.562 43.564 40.9475 43.0842C40.3735 42.6371 39.904 42.0853 39.5023 41.4715C39.1052 40.6876 38.7256 39.9052 38.3675 39.1465C38.3406 39.0879 38.316 39.0275 38.2908 38.971C37.6264 37.1664 37.1962 35.211 36.5753 33.6219C36.5362 33.5219 36.4702 33.4551 36.3965 33.4199C36.2623 32.7665 36.2889 32.4176 36.4281 32.2958C36.9467 33.1367 37.4562 33.9746 37.9632 34.7974ZM40.511 36.6982C40.9219 37.4203 42.4768 40.9119 42.6443 42.684C41.9555 41.614 41.3226 40.5049 40.7226 39.3936C40.3676 38.7328 40.0242 37.65 39.6669 36.6291C39.746 36.5361 39.7741 36.4035 39.6908 36.2653C39.5439 36.0178 39.3936 35.7644 39.2429 35.5114C39.2325 35.4839 39.2209 35.4591 39.2092 35.4343C39.3676 35.4265 39.5261 35.4389 39.6909 35.477C40.0708 36.0027 40.3752 36.4589 40.511 36.6982ZM45.5654 42.6899C46.7085 44.3815 47.7486 46.1663 48.5176 48.0614C48.6556 48.406 48.7434 48.7156 48.7878 48.9914C48.1889 48.642 47.4277 48.2815 47.2502 48.143C46.3654 47.4536 45.625 46.5722 44.8954 45.7262C44.4644 45.2274 44.0604 44.7105 43.6693 44.1767C43.725 42.3829 43.3381 40.3118 42.5867 38.3212C43.7009 39.8215 44.6948 41.4015 45.5654 42.6899ZM48.6756 50.0738C48.2074 50.9803 46.7089 50.823 45.3799 49.6892C43.6823 48.2418 42.2908 46.3624 41.0891 44.362C41.6681 44.7272 42.302 45.0167 43.0084 45.1792C43.0967 45.1996 43.1791 45.1973 43.2542 45.1788C44.6139 47.1003 46.4923 49.3971 48.6756 50.0738ZM28.1644 42.0172C28.3046 42.0611 28.4479 41.9938 28.5413 41.8861C28.7858 41.9258 29.0297 41.7995 29.1031 41.5394C29.3955 40.5288 29.4657 39.4201 29.3885 38.2647C29.5087 38.1783 29.6033 38.0527 29.6196 37.8716C29.9984 33.5159 26.3082 27.1777 22.2723 23.9477C22.2678 23.9445 22.2607 23.9364 22.2554 23.9305C20.9011 20.9022 19.2153 17.9759 16.8285 15.7765C19.7734 17.3111 22.7264 18.8325 25.6826 20.3463C25.4573 20.3221 25.3147 20.6895 25.5479 20.7975C29.9314 22.8188 32.9178 26.7636 35.5364 30.8729C35.4666 30.9417 35.4066 31.0213 35.3833 31.1127C34.3887 35.1036 37.7334 40.4286 39.6048 43.6873C40.9473 46.0284 44.7604 52.8811 48.3663 52.0338C49.3583 51.8027 49.8161 51.1661 49.8927 50.268C49.944 50.2683 49.9945 50.2777 50.0454 50.2749C50.3504 50.2652 50.5373 49.997 50.4813 49.7065C49.9965 47.1912 45.1207 37.5912 41.0795 35.2573C39.8766 33.3242 38.3046 31.7334 36.4733 30.9385C34.1737 27.3264 31.4869 23.7686 28.0835 21.5783C30.5402 22.841 32.988 24.114 35.4289 25.4028C35.3949 25.5179 35.4359 25.6589 35.5807 25.711C38.2689 26.6635 40.3254 28.8876 42.194 30.9577C43.0324 31.8859 43.8287 32.8608 44.6181 33.8328C44.689 33.9212 44.7847 34.0121 44.8849 34.1029C44.6675 34.1098 44.441 34.1408 44.207 34.2134C44.0284 34.2695 43.8833 34.4639 43.9487 34.6569C44.48 36.2267 45.9955 37.6294 47.6883 36.7652C47.841 36.6871 47.9236 36.4842 47.8748 36.3189C47.5692 35.3115 46.7196 34.2649 45.6099 34.1302C44.0255 32.0923 42.3196 29.8173 40.3095 28.0236C42.3507 29.1404 44.3798 30.2649 46.3903 31.4314C49.0775 33.7641 51.5875 36.3895 53.9556 39.1848C53.8355 39.3016 53.7835 39.4786 53.8941 39.6733C55.239 42.0685 56.6757 44.4151 58.1691 46.7304C58.7161 47.7544 59.2537 48.7893 59.7971 49.8128C62.3577 54.6169 65.9238 58.775 68.9867 63.2539C69.268 63.6655 69.9306 63.3071 69.6698 62.8658C69.4326 62.4704 69.1864 62.0804 68.9451 61.6864C69.7948 62.4222 70.6956 62.9885 71.6432 63.2699C74.9596 64.2581 71.3269 56.9521 71.0987 56.5682C67.5615 50.6783 61.975 44.5292 56.2914 40.6227C54.0189 37.8403 51.6043 35.2415 49.0719 33.0074C49.5433 33.2892 50.0228 33.5545 50.4922 33.8413C55.6613 36.9955 60.8204 40.2748 66.0664 43.3885C68.2356 45.6375 70.2433 48.0141 72.3272 50.3049C72.7991 51.0807 73.2976 51.8339 73.8147 52.5672C73.6868 52.4286 73.5433 52.3125 73.4056 52.1919C72.4607 51.037 71.5377 49.863 70.6318 48.6893C70.3144 48.279 69.5977 48.816 69.9019 49.2383C70.3756 49.8938 70.8705 50.5291 71.3757 51.1496C73.1394 53.4315 75.0528 55.5751 77.0364 57.6665C78.2566 58.9557 79.7497 60.4611 81.4048 61.8825C83.377 64.2905 85.3877 66.6256 88.0834 68.3144C88.4569 68.5479 88.7618 68.0507 88.5226 67.7486C87.9128 66.9729 87.2782 66.227 86.6329 65.4912C88.5699 66.4711 90.5753 67.0521 92.5462 66.8806C92.8248 66.856 93.0436 66.6221 92.9674 66.3306C92.1102 63.0169 89.1797 61.1464 86.4998 59.2921C82.5569 56.5612 78.9935 53.0346 74.515 51.2108C74.5125 51.2093 74.5117 51.2116 74.5088 51.2105C73.9523 50.651 73.3921 50.0961 72.8053 49.5656C72.6334 49.4091 72.4025 49.4368 72.2528 49.555C70.6596 47.8009 69.1251 45.9817 67.5136 44.2472C70.9954 46.2889 74.522 48.2374 78.1195 50.0281C77.9715 50.0583 77.8951 50.2902 78.0589 50.3681C79.0089 50.8259 80.0677 51.2063 81.1807 51.5015C84.2757 52.938 87.4254 54.243 90.6572 55.3558C90.4822 55.4855 90.5943 55.8115 90.8583 55.7661C91.09 55.7259 91.3243 55.6955 91.5563 55.655C91.7277 55.7117 91.898 55.7726 92.0698 55.8289C92.0758 55.9533 92.1171 56.0753 92.2353 56.1518C98.5855 60.1623 107.133 63.5136 114.663 61.3736C114.917 61.3004 114.995 60.9941 114.819 60.8C114.446 60.3896 114.039 60.035 113.617 59.709C114.334 59.4146 115.017 59.0587 115.632 58.5922C115.759 58.4973 115.724 58.3055 115.636 58.203C110.189 51.8205 99.2791 53.567 91.7865 55.0842C89.319 54.1767 86.9024 53.1644 84.5196 52.0863C86.4176 52.2561 88.318 52.1249 90.0322 51.6651C90.2 51.7432 90.3776 51.8035 90.5321 51.831C91.3891 51.9936 92.4997 51.584 92.2916 50.5269C92.2469 50.3039 92.1507 50.1064 92.0307 49.9327C92.077 49.8163 92.0495 49.6647 91.9058 49.6457C91.8655 49.6401 91.8191 49.6461 91.778 49.6429C91.2989 49.2091 90.5835 49.0435 89.9573 49.317C89.8086 49.38 89.8514 49.6198 89.9997 49.6522C90.1973 49.6933 90.397 49.7343 90.5935 49.7865C90.214 49.906 89.8562 50.0866 89.5886 50.3301C89.2459 50.6432 89.2511 50.9347 89.4111 51.1786C87.1967 51.6494 84.7945 51.5601 82.4828 51.1462C78.2455 49.1404 74.1122 46.9114 70.0397 44.5614C77.1459 45.5832 86.2848 50.8354 92.8826 45.8693C92.9448 45.8236 92.9797 45.7655 92.9987 45.7013C93.4646 45.403 93.919 45.0681 94.3482 44.6612C94.5242 44.4951 94.4536 44.2535 94.281 44.1231C91.0858 41.7141 87.0682 41.8248 83.2448 42.0931C78.9625 42.3923 71.8584 44.979 68.0021 42.9152C67.7992 42.8054 67.6267 43.0214 67.6854 43.1874C64.2903 41.1825 60.924 39.1074 57.5605 37.0267C58.4125 37.3105 59.2708 37.574 60.1342 37.7994C61.9368 38.2721 64.3373 38.8096 66.277 38.2465C67.1867 39.0809 69.3315 38.7246 69.6465 37.4719C69.7095 37.2183 69.6776 36.9904 69.6097 36.779C69.614 36.7484 69.6225 36.7162 69.6108 36.683C69.2269 35.5234 67.6147 35.0482 66.627 35.7413C66.0153 36.1734 65.6756 36.9971 65.9089 37.686C63.0267 38.4785 59.0217 37.2813 55.7806 35.9279C54.1876 34.9415 52.593 33.9563 50.9939 32.9781C41.9689 27.4609 32.6327 22.6176 23.2516 17.8403C24.5974 18.0604 25.9756 18.1529 27.3688 18.1725C27.3934 18.255 27.4549 18.3322 27.5731 18.3272C28.1944 18.3157 28.8087 18.3438 29.4191 18.3902C29.4296 18.5008 29.5119 18.6159 29.6432 18.6277C31.2197 18.7863 32.6354 19.5985 33.9505 20.4322C34.5476 20.8085 35.1132 21.2249 35.6492 21.6852C35.5748 21.6861 35.5062 21.6689 35.4262 21.6743C35.235 21.6843 35.0643 21.8649 35.1266 22.0621C35.4514 23.0696 36.5059 24.3078 37.5904 23.37C37.9239 23.0813 38.0079 22.5783 37.8299 22.1855C37.5592 21.5872 36.8645 21.2914 36.2305 21.323C35.6548 20.7922 34.8697 20.313 34.5674 20.1015C34.0336 19.7279 33.3453 19.2656 32.605 18.8766C36.8784 19.85 40.9157 21.9747 44.7058 24.162C44.6978 24.2294 44.6846 24.2925 44.6838 24.3713C44.6677 25.5545 46.0996 26.4948 47.1353 26.6132C47.7423 26.681 48.261 26.3546 48.6067 25.8847C49.2441 25.0111 48.3873 24.2419 47.838 23.6393C47.4165 23.1821 46.5591 22.765 46.012 23.2445C45.9878 23.2653 45.979 23.291 45.9598 23.3146C45.5577 23.2567 45.1919 23.3094 44.9571 23.5559C40.8204 21.1767 36.3759 18.7569 31.6492 18.031C33.8952 17.875 36.1403 17.6348 38.3136 17.4734C38.3142 17.5919 38.401 17.7102 38.5522 17.6724C38.8645 17.5922 39.1715 17.4926 39.4808 17.3996C39.9457 17.374 40.409 17.3412 40.8657 17.3272C42.5589 17.2747 44.2377 17.3797 45.9091 17.5584C45.9214 17.564 45.9214 17.5758 45.9346 17.5807C47.9586 18.407 49.8649 19.4263 51.7204 20.5333C51.7459 20.6237 51.7919 20.7063 51.8788 20.7583C55.5335 22.9828 58.9312 25.6498 62.7841 27.5276C62.8462 27.5568 62.8995 27.5486 62.9425 27.5249C64.579 28.4175 66.2662 29.2259 68.0496 29.865C68.2815 29.9486 68.4928 29.7036 68.4584 29.4827C68.9942 29.5745 69.5318 29.6444 70.0679 29.6629C70.3068 29.6713 70.4443 29.4336 70.4059 29.221C69.2008 22.7012 57.7849 20.5853 52.3176 20.0585C50.8875 19.2169 49.4196 18.4546 47.88 17.8031C53.2121 18.5725 58.4818 20.0283 63.8487 20.5171C63.8701 20.5359 63.8825 20.5567 63.9064 20.5701C69.1225 23.8519 77.801 27.7485 84.0142 25.6053C84.2765 25.5138 84.4306 25.1577 84.194 24.9419C83.773 24.5591 83.3312 24.2147 82.8825 23.8878C83.3288 23.8429 83.7743 23.7816 84.22 23.6965C84.5046 23.6417 84.6088 23.2366 84.3989 23.0422C80.5031 19.4315 71.8064 16.8659 66.4257 19.3727C65.8158 19.2987 65.2088 19.2259 64.6088 19.1407C64.1787 19.0793 63.9493 19.5696 64.167 19.8276C64.0109 19.7996 63.8767 19.8801 63.7967 20.0009C57.8727 19.2861 52.0577 17.9363 46.1404 17.1244C46.1144 17.1143 46.0873 17.1034 46.0627 17.0957C46.0248 17.0814 45.9995 17.098 45.9692 17.1016C45.5338 17.0427 45.1009 16.9785 44.6655 16.9281C44.406 16.8968 44.1485 16.8911 43.8907 16.8653C44.1002 16.8307 44.3406 16.8041 44.5592 16.7741C48.9698 17.1822 53.368 17.4947 57.7381 18.5055C57.9481 18.5538 58.0335 18.2417 57.8234 18.1816C54.6745 17.2854 51.3872 16.6836 48.0768 16.3176C48.2261 16.2999 48.3643 16.2842 48.5132 16.2652C48.5301 16.2688 48.542 16.2781 48.5597 16.276C48.7943 16.2437 49.0277 16.2056 49.2631 16.1726C55.8832 15.3357 63.5149 13.9923 66.2343 8.41882C66.3432 8.19354 66.2487 7.94709 66.0058 7.86878C65.586 7.73472 65.1732 7.66139 64.7605 7.6135C64.8106 7.55019 64.8686 7.49246 64.9151 7.42692C65.0618 7.23628 64.8583 7.00283 64.6633 6.98863C57.6665 6.48363 51.3336 11.0044 45.0056 14.4087C44.3242 14.719 43.645 15.0395 42.9724 15.3768C42.8978 15.4102 42.8563 15.4634 42.829 15.5206C42.5301 15.6648 42.2307 15.7772 41.9309 15.912C41.2791 15.9 40.6281 15.8907 39.9784 15.8923C39.7683 15.8951 39.7084 16.2447 39.931 16.2745C40.242 16.3144 40.5525 16.3479 40.8617 16.3841C40.6565 16.4696 40.4502 16.5747 40.2429 16.6535C38.819 16.6259 37.4019 16.6558 35.9865 16.6996C37.7536 15.8328 39.2885 14.5208 40.3816 12.8814C40.4832 12.9184 40.5876 12.9532 40.6944 12.9657C41.4435 13.0504 42.1299 12.4321 42.1979 11.6937C42.2859 10.7426 41.3218 10.1243 40.4629 10.3829C40.3243 10.426 40.29 10.6145 40.4197 10.6888C40.7712 10.892 41.4736 11.0747 41.5056 11.5625C41.5293 11.9311 41.197 12.2767 40.838 12.2968C40.8101 12.3002 40.7817 12.2886 40.7512 12.2838C40.8526 12.1103 40.9527 11.9395 41.0449 11.7597C41.2152 11.4164 40.7022 11.1146 40.5296 11.4599C40.4309 11.6551 40.3163 11.8236 40.2106 12.0056C39.8648 11.6637 39.6358 11.1021 39.6865 10.7444C39.8207 9.8451 41.3083 10.0348 41.8736 10.2442C42.111 10.332 42.2792 9.92904 42.0443 9.82907C41.1789 9.46925 39.4413 9.26127 39.0954 10.4772C38.8971 11.174 39.2656 12.0688 39.8679 12.5752C38.3537 14.8222 36.1885 15.9846 33.6971 16.7743C31.7565 16.8472 29.82 16.9253 27.8766 16.9205C29.4882 15.0213 31.0569 13.178 32.6915 11.3999C33.1842 11.1791 33.6814 10.9616 34.1669 10.7311C37.4356 9.3651 40.7153 8.0499 43.8172 6.31955C45.2512 5.5169 47.9854 2.67703 47.6324 1.23822C47.7123 1.12079 47.8073 0.998211 47.87 0.887583C47.9801 0.681721 47.8747 0.450696 47.6589 0.381548C46.8732 0.123571 46.0457 0.184 45.2142 0.429368C45.1613 0.43719 45.1197 0.430885 45.0652 0.439947C38.808 1.13985 34.9575 6.07064 31.6824 10.8529C31.4186 10.9711 31.1521 11.0847 30.8912 11.2074C30.5114 11.3918 30.6272 11.8168 30.9149 11.9787C30.7361 12.2421 30.5601 12.5051 30.3846 12.7643C29.3117 14.0751 28.3021 15.4481 27.38 16.9117C25.0083 16.8882 22.6288 16.7386 20.2242 16.2978C13.6566 12.96 7.08218 9.62621 0.595933 6.08652C0.243513 5.89555 -0.0639389 6.42232 0.283099 6.63079C4.82556 9.35925 9.46834 11.9023 14.1506 14.3741C14.1663 14.3907 14.1656 14.4116 14.1865 14.4273C17.1048 16.3754 18.7195 19.0996 20.1334 21.9789C19.652 21.5979 19.1732 21.2454 18.7048 20.9629C18.4804 20.8291 18.0894 20.9441 18.0507 21.2346C17.7073 23.755 18.4683 26.4074 19.4393 28.8939C20.0346 31.0129 20.9922 33.1941 22.1675 35.1813C23.5425 38.0268 25.4661 41.1389 28.1644 42.0172Z" fill="#969A92"/>
</svg>
