<svg width="53" height="129" viewBox="0 0 53 129" fill="none" xmlns="http://www.w3.org/2000/svg">
<path fill-rule="evenodd" clip-rule="evenodd" d="M11.0347 23.4957C10.7054 24.0024 10.3747 24.0024 10.0441 23.497C10.3747 23.497 10.7054 23.497 11.0347 23.4957Z" fill="#F3F2DA"/>
<path fill-rule="evenodd" clip-rule="evenodd" d="M2.12539 14.5876L1.92139 14.4757L2.01204 14.3836L2.12539 14.5876Z" fill="#F3F2DA"/>
<path fill-rule="evenodd" clip-rule="evenodd" d="M0 35.689C0.0413333 35.6263 0.0973503 35.505 0.11735 35.5116C0.25735 35.5503 0.412017 35.589 0.51735 35.6796C0.728017 35.861 0.678678 35.941 0.412012 35.857C0.270678 35.8103 0.137333 35.745 0 35.689Z" fill="#F3F2DA"/>
<path fill-rule="evenodd" clip-rule="evenodd" d="M46.3787 59.3517C46.3041 59.7344 46.0614 59.9424 45.7187 59.9624C45.2481 59.9891 44.9574 59.6771 44.8867 59.2571C44.8201 58.8544 45.1534 58.7104 45.4961 58.7051C45.9454 58.6984 46.2347 58.9491 46.3787 59.3517Z" fill="#F3F2DA"/>
<path fill-rule="evenodd" clip-rule="evenodd" d="M19.5733 65.377C19.5027 65.3984 19.432 65.4197 19.3627 65.4397C19.3467 65.377 19.2987 65.2744 19.3174 65.261C19.5027 65.1264 19.5933 65.1717 19.5733 65.377Z" fill="#F3F2DA"/>
<path fill-rule="evenodd" clip-rule="evenodd" d="M39.4626 88.5038C39.536 88.3262 39.56 88.1199 39.6466 88.0893C39.888 88.0065 40.0933 88.1595 40.1306 88.3893C40.1479 88.4918 40.5306 88.8465 40.012 88.7877C39.8186 88.7653 39.6426 88.6011 39.4626 88.5038Z" fill="#F3F2DA"/>
<path fill-rule="evenodd" clip-rule="evenodd" d="M35.78 86.3533C36.1094 86.3533 36.44 86.3533 36.7694 86.3533C36.44 86.8585 36.1094 86.8585 35.78 86.3533Z" fill="#F3F2DA"/>
<path fill-rule="evenodd" clip-rule="evenodd" d="M33.3067 81.4039C34.112 80.7692 33.6534 79.6292 34.296 78.9292C35.0894 79.5759 35.2813 80.5825 35.78 81.4039C34.7907 81.7345 33.8013 82.0639 32.8107 82.3945C32.976 82.0639 33.1413 81.7345 33.3067 81.4039Z" fill="#F3F2DA"/>
<path fill-rule="evenodd" clip-rule="evenodd" d="M34.2947 83.3838C35.008 83.3852 35.5027 83.7158 35.78 84.3732C35.06 84.3812 34.3413 84.3852 34.2947 83.3838Z" fill="#F3F2DA"/>
<path fill-rule="evenodd" clip-rule="evenodd" d="M36.2746 84.8677C35.92 85.4506 35.3346 85.3463 34.7906 85.3635C35.1466 84.7823 35.7306 84.8849 36.2746 84.8677Z" fill="#F3F2DA"/>
<path fill-rule="evenodd" clip-rule="evenodd" d="M26.2426 77.6344C26.38 77.6958 26.592 77.7251 26.632 77.8238C26.6706 77.9211 26.5346 78.0878 26.4746 78.2251C26.3373 78.1651 26.124 78.1358 26.0853 78.0358C26.0453 77.9384 26.1826 77.7718 26.2426 77.6344Z" fill="#F3F2DA"/>
<path d="M51.5733 30.8824C51.456 30.3757 50.8106 30.4784 50.6493 30.8824C42.384 51.5357 28.9573 71.0157 27.208 93.5969C27.0853 89.6985 27.0293 85.7917 27.08 81.8664C27.2386 69.3864 30.2773 56.801 28.8146 44.3597C29.1946 42.3144 28.8146 39.441 28.804 38.4904C28.804 38.3037 28.708 38.181 28.5826 38.1077C28.7706 38.0277 28.9266 37.8144 28.9413 37.4704C28.9466 37.3664 28.8706 37.2877 28.776 37.2437C28.58 36.8477 27.7973 36.9237 27.836 37.4704C27.8613 37.7717 27.9907 37.965 28.1507 38.0637C27.9853 38.1224 27.8587 38.2637 27.8587 38.4904C27.8667 39.105 27.892 39.7197 27.916 40.3344C27.876 40.3557 27.8386 40.385 27.8133 40.4224C27.8253 39.717 27.82 39.0477 27.82 38.4904C27.8227 37.833 26.8013 37.833 26.8013 38.4904V38.541C26.7733 38.5584 26.7453 38.553 26.72 38.5784C25.7667 39.5477 24.8453 40.553 23.9133 41.5424C23.9106 41.545 23.9026 41.5504 23.9 41.5544C24.652 40.529 25.3666 39.477 26.0653 38.4157C26.4413 37.8464 25.5347 37.3264 25.156 37.8837C24.4747 38.8997 23.7853 39.909 23.0573 40.893C22.9373 41.0557 22.8 41.2184 22.6533 41.381C23.9373 39.537 24.9146 37.4104 25.6986 35.6797C25.9586 35.105 25.1106 34.601 24.8453 35.181C24.0253 36.9557 23.1533 38.693 22.072 40.3224C20.6493 42.4704 18.792 43.745 16.64 45.0664C16.4373 45.1904 16.5 45.581 16.772 45.5504C18.4813 45.3557 19.908 44.4757 21.116 43.257C21.008 43.4464 20.9147 43.6384 20.8533 43.837C20.7787 44.0864 21.032 44.3517 21.284 44.269C21.7507 44.117 22.1333 43.7944 22.4786 43.4197C22.4653 43.5797 22.4893 43.733 22.6173 43.861C23.3133 44.5557 24.4467 42.7677 24.7587 42.3864C25.4453 41.545 26.1733 40.689 26.7893 39.777C26.7707 40.829 26.712 41.877 26.5333 42.9197C26.2933 44.2824 25.5467 45.341 25.0267 46.5824C24.9307 46.8077 25.2253 46.9624 25.4013 46.8704C27.3133 45.873 27.716 43.205 27.8 40.8664C27.856 41.3077 27.9027 41.7477 27.9533 42.1877C27.9533 42.333 27.964 42.4797 27.9613 42.6277C27.9507 43.353 27.856 44.061 27.648 44.7557C27.4786 45.3197 27.0213 45.6824 26.7653 46.189C26.684 46.3517 26.7813 46.545 26.9706 46.549C27.5546 46.5597 27.9693 46.2824 28.272 45.8357C29 58.669 26.24 71.613 26.0506 84.4437C26.0013 87.7464 25.9506 91.0996 25.932 94.473C22.288 81.933 12.696 73.1557 5.44531 62.3397C4.42398 60.8144 3.54799 59.2144 2.68665 57.5944C1.73332 55.7997 8.12265 58.565 8.11999 58.497C11.5707 60.309 14.1667 63.7544 16.292 66.8917C20.2907 72.7917 22.3173 79.6317 24.8613 86.2021C25.0547 86.7064 25.8053 86.5209 25.6826 85.9772C23.0013 74.2277 15.436 56.4957 1.47197 55.6837C1.07197 55.6597 0.906651 56.1064 1.05065 56.4157C7.91465 71.0664 22.056 80.793 25.9306 96.8824C25.9266 107.446 26.3413 118.172 28.3773 128.332C28.4466 128.668 28.9866 128.588 28.9733 128.251C28.7426 122.444 28.3947 116.666 28.0573 110.894C28.208 110.866 28.3493 110.769 28.352 110.57C28.5453 98.1745 32.1107 87.1532 37.524 76.141C40.1413 70.821 44.6373 63.0717 42.136 57.0397C41.9653 56.633 41.3546 56.4224 41.104 56.9064C39.1386 60.7304 38.68 64.8397 38.484 69.089C38.464 69.5304 39.1413 69.6157 39.2453 69.1944C39.9013 66.4997 40.188 63.761 40.7293 61.0437C42.088 54.2184 41.3826 63.129 41.0066 64.6864C39.736 69.9224 36.9893 74.8264 34.652 79.645C33.8533 81.297 33.1493 82.9757 32.492 84.6637C33.4813 80.713 34.6786 76.8397 35.8053 72.921C35.928 72.493 35.2653 72.3117 35.1386 72.7384C33.768 77.3664 31.948 81.933 31.4907 86.7704C31.4813 86.8797 31.5546 86.9422 31.6413 86.9756C29.468 93.2516 28.2266 99.7594 27.7973 106.421C27.652 103.809 27.5146 101.198 27.4013 98.5865C27.5066 98.5506 27.6026 98.4772 27.608 98.3302C28.1653 83.017 33.7053 69.3037 40.2493 55.6544C43.1733 49.561 46.2026 43.5237 48.9733 37.3557C50.0186 35.0237 50.7573 29.5464 51.432 35.7957C51.764 38.8637 51.504 41.9984 51.2333 45.0584C50.1013 57.7544 45.7586 70.1944 39.6333 81.2824C34.1746 91.1662 27.632 101.172 28.416 112.951C28.4386 113.285 28.888 113.271 28.9267 112.951C30.0067 104.042 32.3866 96.5625 36.6373 88.6532C40.008 82.3784 43.7293 76.3504 46.2867 69.6744C50.768 57.9744 54.5026 43.3757 51.5733 30.8824Z" fill="#969A92"/>
<path d="M21.2574 36.1757C21.736 35.617 20.9253 34.801 20.4467 35.365C20.184 35.6717 19.9214 35.985 19.6574 36.2997C19.5174 36.237 19.48 36.0823 19.3427 35.9197C19.2253 35.7783 19.004 35.8383 18.9173 35.9743C18.7893 36.1717 18.7573 36.3503 18.7813 36.513C18.776 36.5077 18.768 36.5063 18.76 36.501C18.364 36.145 17.776 36.7557 18.1813 37.0797C18.356 37.217 18.5347 37.3157 18.7173 37.3837C16.72 39.6703 14.4947 41.7597 11.332 41.9383C11.0907 41.9517 10.928 42.253 11.1254 42.437C14.176 45.2757 19.66 38.0397 21.2574 36.1757Z" fill="#969A92"/>
<path d="M9.76405 32.825C9.54272 32.7184 9.25606 32.945 9.40673 33.1823C11.2747 36.097 15.2427 33.6023 17.1441 32.0623C17.6707 31.6343 16.9227 30.8944 16.4001 31.3184C14.3841 32.9584 12.2734 34.045 9.76405 32.825Z" fill="#969A92"/>
<path d="M6.91873 31.8998C6.89206 31.9731 6.88674 32.0531 6.92674 32.1464C7.2774 32.9771 9.15473 32.4438 9.81873 32.1584C10.4347 32.1678 11.0534 32.1597 11.672 32.1464C12.26 32.1357 12.26 31.2464 11.672 31.2331C10.664 31.2118 9.65873 31.1811 8.65473 31.0851C7.72406 30.9958 6.72939 30.5104 5.81072 30.7118C5.63205 30.7531 5.50673 31.0104 5.62407 31.1651C5.95607 31.5958 6.41606 31.7878 6.91873 31.8998Z" fill="#969A92"/>
<path d="M10.3054 25.037C10.2667 25.1664 10.2427 25.2997 10.2214 25.4517C10.1414 26.037 10.8187 26.1397 11.0241 25.769C11.9841 26.717 12.9841 27.6237 13.9121 28.5237C13.8547 28.4984 13.7881 28.485 13.7121 28.4864C13.5707 28.489 13.4427 28.501 13.3041 28.5344C12.8721 28.637 12.8721 29.3037 13.3041 29.4064C13.4427 29.4384 13.5707 29.4504 13.7121 29.453C14.1414 29.465 14.2667 28.9997 14.1067 28.7104C14.1974 28.801 14.2921 28.8904 14.3827 28.9784C14.8347 29.429 15.5347 28.7303 15.0814 28.281C12.4574 25.681 9.98539 22.9517 7.40273 20.3197C7.22273 20.137 6.97339 20.3677 7.06939 20.5784C7.82139 22.2317 9.0014 23.6837 10.3054 25.037Z" fill="#969A92"/>
<path d="M11.6787 21.9211C11.832 22.3318 12.4893 22.1638 12.3453 21.7385C11.76 20.0225 10.7893 18.5251 9.78 17.0425C9.92133 17.1145 10.0707 17.1665 10.2093 17.2451C10.4227 17.3611 10.5933 17.0998 10.4547 16.9278C10.0133 16.3758 9.40401 16.0731 8.81867 15.6985C8.48001 15.4825 8.03201 15.9171 8.26001 16.2558C9.48668 18.0878 10.9 19.8385 11.6787 21.9211Z" fill="#969A92"/>
<path d="M13.652 18.2664C13.0067 17.2077 12.668 16.0611 12.5067 14.8531C13.2187 14.8984 13.9333 14.7664 14.64 15.0264C14.9347 15.1357 15.18 14.7611 15.0333 14.5144C14.552 13.7024 14.2733 12.8637 14.0907 11.9464C13.9947 11.4651 13.9187 11.0931 13.612 10.7091C13.4707 10.5317 13.184 10.6091 13.0787 10.7784C12.488 11.7251 13.3 13.2464 14.004 14.2731C13.36 14.2157 12.6813 14.1464 12.124 13.9384C11.8613 13.8397 11.584 14.0904 11.5853 14.3504C11.5907 15.8904 12.276 17.3224 13.092 18.5931C13.3173 18.9437 13.8707 18.6251 13.652 18.2664Z" fill="#969A92"/>
<path d="M16.9466 9.47304C16.9253 9.50104 16.8946 9.52371 16.8786 9.55838C16.864 9.59038 16.852 9.62371 16.8453 9.65838C16.844 9.66104 16.844 9.66503 16.844 9.6677C16.8266 9.7717 16.84 9.8837 16.92 10.001C16.9213 10.001 16.9226 10.001 16.9226 10.0037C17.156 10.609 17.568 11.1224 17.9066 11.6837C18.4493 12.577 18.8826 13.537 19.2786 14.5024C19.5066 15.0584 20.2906 14.953 20.4039 14.513C20.8079 15.1864 21.188 15.8744 21.5173 16.5957C21.7373 17.0784 22.4333 16.6597 22.224 16.185C21.4213 14.3597 20.3413 12.6424 19.1853 10.993C19.2493 11.0424 19.3133 11.093 19.3786 11.1424C19.5546 11.2757 19.8173 11.0117 19.684 10.837C19.0306 9.98504 18.2853 9.2477 17.4373 8.58504C17.0599 8.28904 16.3933 8.67304 16.7146 9.14238C16.7906 9.25438 16.8706 9.36237 16.9466 9.47304Z" fill="#969A92"/>
<path d="M22.8187 13.597C22.58 12.3917 22.7654 11.1784 22.8534 9.96638C23.2894 10.3251 23.7294 10.6784 24.0947 11.1077C24.2347 11.2757 24.5427 11.0971 24.4653 10.8904C24.1547 10.0451 23.4347 9.59972 22.7973 9.00372C22.5773 8.79972 22.2053 8.94105 22.2053 9.25039C22.1947 10.7517 21.9427 12.2624 22.2853 13.7437C22.368 14.0917 22.8853 13.9424 22.8187 13.597Z" fill="#969A92"/>
<path d="M31.6187 15.1877C31.776 14.681 31.9694 14.2117 32.1627 13.7437C32.3947 13.661 32.5814 13.3997 32.448 13.109C32.4454 13.1023 32.4427 13.0943 32.44 13.0877C33.2347 11.3743 34.2494 9.83832 35.2867 8.17966C35.6414 7.61699 34.8467 7.03566 34.3867 7.48499C33.368 8.47566 32.5533 9.757 31.8973 11.121C31.8453 10.633 31.8334 10.1397 31.9067 9.641C32.0627 8.51033 32.78 7.91834 33.3347 7.01167C33.468 6.797 33.2507 6.53832 33.016 6.59832C30.7134 7.18632 30.7374 10.365 31.312 12.469C30.9894 13.2783 30.7134 14.093 30.4827 14.873C30.2667 15.605 31.3987 15.913 31.6187 15.1877Z" fill="#969A92"/>
<path d="M35.7414 15.2864C35.94 15.3171 36.116 15.1718 36.068 14.9598C35.7654 13.6211 33.9707 14.1904 33.2147 14.6584C32.7427 14.9518 33.1814 15.7024 33.6494 15.4024C33.9907 15.1811 34.3334 14.9678 34.748 14.9384C35.1254 14.9118 35.388 15.2318 35.7414 15.2864Z" fill="#969A92"/>
<path d="M35.5134 18.2917C35.3827 18.3104 35.256 18.325 35.1307 18.329C34.5867 18.345 34.5707 19.149 35.0747 19.1997C35.0534 19.2837 35.0187 19.3637 35.008 19.4503C34.9587 19.969 35.8294 20.085 35.9174 19.573C35.9454 19.409 36.084 19.245 36.236 19.0904C36.3614 19.0704 36.4854 19.053 36.6094 19.0303C37.0747 18.937 37.58 18.9157 37.9934 18.673C38.1694 18.5717 38.1854 18.285 37.9934 18.1877C37.7334 18.0543 37.444 18.021 37.1414 18.0303C37.2987 17.8237 37.4467 17.6157 37.5854 17.397C38.1294 16.529 38.5734 15.301 37.7094 14.4904C37.556 14.345 37.3014 14.409 37.24 14.6157C36.924 15.7063 36.6934 16.601 36.04 17.5597C35.876 17.7997 35.688 18.041 35.5134 18.2917Z" fill="#969A92"/>
<path d="M25.924 8.24373C26.1347 9.74507 26.2987 11.2517 26.38 12.7757C26.0507 11.8517 25.808 10.9024 25.7213 9.91839C25.6693 9.27439 25.7627 8.74107 25.924 8.24373ZM25.0493 2.26639C25.236 3.67705 25.4533 5.07706 25.664 6.4744C24.0786 8.2384 25.1587 12.0211 25.9427 13.8731C26.0307 14.0784 26.248 14.1064 26.4293 14.0371C26.436 14.4797 26.4466 14.9224 26.4333 15.3691C26.4306 15.5077 26.4827 15.6104 26.5507 15.6931C26.3213 16.3371 26.0813 16.9811 25.8306 17.6224C25.6053 18.1984 26.5307 18.4451 26.7533 17.8771C27.7747 15.2704 31.8973 4.90772 27.7107 3.25039C27.552 3.18639 27.3786 3.37572 27.4306 3.53172C28.5026 6.72772 28.2267 9.87039 27.3933 12.9797C27.284 10.8877 27.1307 8.76773 26.8427 6.67573C27.04 6.45573 27.2387 6.23839 27.4813 6.01972C27.6693 5.84772 27.468 5.57572 27.2467 5.61839C27.0493 5.65839 26.8746 5.71705 26.708 5.78105C26.4493 4.15172 26.1093 2.54506 25.6267 0.991732C25.5253 0.665064 24.9853 0.613064 24.9147 0.991732C24.84 1.34373 24.7786 1.69839 24.7306 2.05573C24.7026 2.24506 24.9173 2.37839 25.0493 2.26639Z" fill="#969A92"/>
<path d="M29.828 20.3651C30.24 20.0997 30.6067 19.9691 31.0934 19.9118C31.4934 19.8651 31.876 19.9477 32.2213 19.7064C32.4133 19.5744 32.4133 19.3264 32.2213 19.1944C31.9787 19.0224 31.6853 18.9678 31.3853 18.9771C31.7667 17.4664 32.336 16.0358 33.1227 14.6758C34.0493 13.0704 35.3347 12.2997 36.6707 11.1317C36.8413 10.9811 36.7067 10.6931 36.4907 10.6957C34.9 10.7171 33.688 12.2437 32.8147 13.4131C31.54 15.1171 30.7214 17.2611 30.196 19.3091C30.1907 19.3278 30.196 19.3437 30.1934 19.3637C29.892 19.5424 29.6293 19.7638 29.4573 19.9931C29.292 20.2144 29.6107 20.5051 29.828 20.3651Z" fill="#969A92"/>
<path d="M36.2693 20.901C37.5933 20.721 38.8813 20.3717 40.208 20.2037C41.8427 19.997 42.8746 20.4784 44.1693 21.393C44.376 21.5384 44.6453 21.2997 44.584 21.0757C43.5973 17.5944 38.336 19.6904 36.0346 20.0397C35.4626 20.1264 35.7093 20.9757 36.2693 20.901Z" fill="#969A92"/>
<path d="M42.06 24.7637C41.4773 24.5463 41.2213 25.4837 41.8039 25.697C42.3226 25.885 42.7359 26.2157 43.1039 26.6197C43.5239 27.0783 43.6559 27.7357 44.1053 28.157C44.2653 28.3063 44.5346 28.245 44.5933 28.0277C44.9826 26.6317 43.1933 25.185 42.06 24.7637Z" fill="#969A92"/>
<path d="M42.4121 30.4837C42.9161 31.1384 43.4614 31.969 44.2387 32.2917C44.4227 32.3664 44.6454 32.141 44.5734 31.9584C44.2734 31.2037 43.5387 30.6331 43.0254 30.0117C42.4347 29.2997 41.9201 28.5317 41.4294 27.753C41.5001 27.4304 41.3334 27.0437 40.9107 27.0517C40.8161 27.053 40.7187 27.057 40.6241 27.0624C39.9201 27.1117 39.9201 28.1077 40.6241 28.157C40.6961 28.161 40.7667 28.1637 40.8387 28.165C41.3267 28.9637 41.8401 29.7424 42.4121 30.4837Z" fill="#969A92"/>
<path d="M38.18 35.1356C38.9 36.3063 39.664 37.449 40.412 38.585C40.5254 38.757 40.808 38.649 40.752 38.441C40.0707 35.9063 38.2841 33.837 37.2267 31.4597C36.9867 30.9237 36.196 31.3876 36.4374 31.921C36.7987 32.7236 37.224 33.4983 37.6694 34.265C37.6054 34.289 37.5467 34.329 37.4921 34.389C37.2707 34.6236 37.2427 34.6983 37.0307 34.8476C36.852 34.9716 36.8467 35.2103 37.0307 35.333C37.4414 35.6076 37.8427 35.4343 38.18 35.1356Z" fill="#969A92"/>
<path d="M30.7853 44.8771C31.032 45.1091 31.412 44.9384 31.428 44.6104C31.4707 43.8517 31.0347 43.1184 30.796 42.4051C30.4453 41.3544 30.26 40.2771 30.2373 39.1704C30.224 38.4651 29.128 38.4651 29.144 39.1704C29.172 40.2557 29.348 41.2957 29.652 42.3397C29.892 43.1757 30.1373 44.2664 30.7853 44.8771Z" fill="#969A92"/>
<path d="M24.148 31.445C24.2266 30.8543 23.3586 30.425 23.052 31.0463C23.0413 31.069 23.0213 31.1183 23.004 31.1583C22.984 31.1783 22.968 31.205 22.9466 31.2263C22.856 31.157 22.7613 31.0956 22.636 31.0463C22.4706 30.985 22.2986 31.1156 22.2506 31.2663C22.1146 31.6823 22.2053 32.277 22.5853 32.5397C23.1106 32.9023 23.632 32.4957 24.0227 32.141C24.256 31.9277 24.2613 31.6623 24.148 31.445Z" fill="#969A92"/>
<path d="M17.516 31.4824C18.4253 31.9597 19.8866 31.7317 20.492 30.8584C20.636 30.6517 20.484 30.3784 20.272 30.3104C19.4773 30.0597 18.7386 30.7384 17.936 30.4824C17.3466 30.2944 16.9666 31.1944 17.516 31.4824Z" fill="#969A92"/>
<path d="M18.9347 27.2383C19.5121 27.2703 20.0161 26.8943 20.1547 26.3397C20.2027 26.1463 20.056 25.8917 19.8307 25.9157C19.3107 25.9717 18.9814 26.121 18.6827 25.5877C18.2801 24.8703 17.1667 25.5197 17.5814 26.2317C17.8707 26.729 18.3214 27.2023 18.9347 27.2383Z" fill="#969A92"/>
<path d="M19.748 24.8531C20.0213 24.9317 20.2293 24.6277 20.1013 24.3917C19.6773 23.5904 18.864 23.0317 18.312 22.3091C17.788 21.6211 17.452 20.8357 17.264 19.9944C17.12 19.3517 16.1413 19.625 16.2787 20.265C16.6533 21.977 17.9507 24.3211 19.748 24.8531Z" fill="#969A92"/>
<path d="M23.4587 23.7223C23.64 23.8583 23.884 23.5957 23.764 23.4183C22.72 21.8677 21.592 20.473 20.7174 18.8037C19.756 16.965 18.9813 15.0317 18.0667 13.169C17.8867 12.801 17.336 13.1237 17.5174 13.4903C19.14 16.805 20.3934 21.4157 23.4587 23.7223Z" fill="#969A92"/>
<path d="M26.8707 22.4517C26.3494 23.2397 26.192 23.9916 27.136 24.513C27.532 24.7316 27.8867 24.117 27.4881 23.9077C26.9441 23.621 27.0667 23.061 27.0881 22.5103C27.0934 22.3877 26.9307 22.3597 26.8707 22.4517Z" fill="#969A92"/>
<path d="M27.332 22.565C27.7694 22.9117 28.5721 23.4717 29.1281 23.0477C29.2414 22.961 29.2867 22.8024 29.172 22.689C28.748 22.269 28.0867 22.085 27.6134 21.6984C26.9627 21.165 26.4134 20.5037 25.9 19.841C25.6187 19.4757 24.9814 19.9664 25.2574 20.3357C25.8721 21.1517 26.528 21.9304 27.332 22.565Z" fill="#969A92"/>
<path d="M28.4081 35.1531C28.8734 36.0811 30.4188 37.7251 31.3268 36.2704C31.4521 36.0691 31.2894 35.7838 31.0508 35.7918C28.9241 35.8638 28.2548 32.0291 27.9228 30.0251C29.2201 30.0704 30.4921 29.3531 30.9628 28.0198C31.0374 27.8064 30.7654 27.6038 30.5814 27.7251C29.5268 28.4184 28.6014 29.4998 27.2307 28.8651C26.6281 28.5864 26.1068 29.4904 26.7094 29.7544C26.7374 29.7651 26.7641 29.7691 26.7894 29.7798C26.7894 29.7851 26.7868 29.7878 26.7894 29.7944C27.1028 31.6291 27.5708 33.4824 28.4081 35.1531Z" fill="#969A92"/>
<path d="M25.0747 26.1077C25.0347 26.0544 24.9601 26.0491 24.8934 26.0624C24.8121 25.9357 24.6707 25.8851 24.5387 25.9011C24.532 25.7531 24.4214 25.6157 24.2507 25.6184C23.6427 25.6291 23.0547 25.9157 22.7027 25.2837C22.3467 24.6424 21.3641 25.2157 21.7214 25.8571C22.2561 26.8171 23.5174 27.1931 24.2534 26.3984C24.4921 27.1864 25.5601 26.7171 25.0747 26.1077Z" fill="#969A92"/>
<path d="M25.6427 22.4771C25.584 22.4237 25.528 22.3677 25.4707 22.3104C25.364 22.2011 25.18 22.2011 25.072 22.3104C25.016 22.3677 24.96 22.4237 24.8986 22.4771C24.556 22.7944 24.8267 23.3757 25.2707 23.3757C25.716 23.3757 25.9853 22.7944 25.6427 22.4771Z" fill="#969A92"/>
<path d="M23.44 18.6117C22.8373 18.9784 23.376 19.9091 23.992 19.5584C24.128 19.4797 24.2453 19.3317 24.3987 19.3091C25.1027 19.1971 24.812 18.0971 24.104 18.2331C23.8053 18.2877 23.6827 18.4637 23.44 18.6117Z" fill="#969A92"/>
<path d="M15.1627 22.1703C15.164 22.1863 15.1667 22.2063 15.1667 22.2237C14.9787 22.7557 14.6814 23.545 15.0014 24.0117C15.3254 24.4824 16.072 24.6077 16.3627 24.029C16.4414 23.869 16.4014 23.697 16.2507 23.5983C16.1854 23.549 16.1147 23.5117 16.0347 23.485C15.872 23.4397 15.9147 23.6263 15.9507 23.3863C15.9654 23.2903 15.9974 23.1943 16.0227 23.0983C16.2907 22.9157 16.3267 22.4703 16.3414 22.1703C16.38 21.409 15.124 21.409 15.1627 22.1703Z" fill="#969A92"/>
<path d="M23.0907 15.5691C23.3614 15.3451 23.376 15.0251 23.3894 14.6904C23.42 14.0451 22.3654 14.0451 22.3907 14.6904C22.4067 15.0251 22.4227 15.3451 22.692 15.5691C22.8187 15.6744 22.9654 15.6744 23.0907 15.5691Z" fill="#969A92"/>
<path d="M23.964 34.9117C24.0586 34.9144 24.1546 34.9184 24.2506 34.9211C24.9093 34.9424 24.9093 33.8771 24.2506 33.8997C24.1546 33.9024 24.0586 33.9077 23.964 33.9104C23.32 33.9317 23.32 34.8877 23.964 34.9117Z" fill="#969A92"/>
<path d="M16.4493 34.7663C16.3787 34.8397 16.308 34.9117 16.236 34.9823C15.6773 35.049 15.6573 35.925 16.236 35.8744C16.6173 35.8424 16.8253 35.6717 17.0947 35.413C17.5213 35.005 16.8613 34.345 16.4493 34.7663Z" fill="#969A92"/>
<path d="M14.208 35.9251C14.1107 36.0424 14.1107 36.1784 14.208 36.2957C14.4413 36.5771 14.728 36.5344 15.072 36.5504C15.64 36.5784 15.64 35.6424 15.072 35.6691C14.728 35.6851 14.4413 35.6438 14.208 35.9251Z" fill="#969A92"/>
<path d="M13.6521 34.5303C13.1894 34.6956 12.7841 34.8263 12.3961 35.1343C11.9787 35.4623 12.5841 36.0997 12.9881 35.7263C13.3147 35.4263 13.6894 35.2636 13.9094 34.865C14 34.701 13.8481 34.4583 13.6521 34.5303Z" fill="#969A92"/>
<path d="M31.6027 23.7584C31.5574 23.505 31.3801 23.2797 31.0507 23.2797C30.7614 23.2797 30.4454 23.1584 30.1707 23.285C30.0334 23.3477 29.9454 23.5277 29.9481 23.673C29.9587 24.2744 30.4267 24.421 30.9294 24.449C30.9801 24.5717 31.0801 24.669 31.2587 24.697C31.4521 24.697 31.5707 24.7877 31.6187 24.9717C31.7601 25.2664 32.0467 25.2784 32.2601 25.1437C32.2414 25.2117 32.2387 25.2877 32.2494 25.3677C32.3281 25.861 32.6574 26.221 33.1307 26.361C33.38 26.433 33.6827 26.2744 33.7387 26.0157C33.7494 25.9717 33.7547 25.9264 33.7574 25.8837C33.7707 25.705 33.6521 25.549 33.5134 25.4557C33.3481 25.393 33.2614 25.2717 33.2534 25.0917C33.1894 24.681 32.7747 24.6344 32.4947 24.817C32.5254 24.7104 32.528 24.593 32.472 24.4717C32.3027 24.0984 31.996 23.8517 31.6027 23.7584Z" fill="#969A92"/>
<path d="M33.312 31.2116C33.208 30.8956 32.844 30.6783 32.5147 30.829C32.352 30.785 32.1747 30.809 32.028 30.9676C31.9853 31.0156 31.9373 31.0623 31.892 31.1076C31.624 31.309 31.5133 31.6983 31.8 31.949C31.932 32.065 32.076 32.1023 32.2187 32.0876C32.252 32.0996 32.272 32.1263 32.3107 32.133C32.628 32.1863 32.8173 32.081 33.0187 31.9023C33.0933 32.097 33.2707 32.237 33.5573 32.1503C33.792 32.0823 34.004 31.9876 34.2187 31.873C34.3573 31.801 34.3573 31.5796 34.2187 31.5063C34.004 31.393 33.792 31.2983 33.5573 31.229C33.4653 31.201 33.38 31.1983 33.312 31.2116Z" fill="#969A92"/>
<path d="M35.0334 31.8796C35.5134 31.8116 35.6587 31.3837 35.7094 30.945C35.8841 30.9983 36.0867 30.933 36.1667 30.7143C36.2134 30.585 36.2227 30.4676 36.2307 30.3303C36.2547 29.9756 35.8761 29.8596 35.6187 29.9676C35.4441 29.7423 35.1174 29.7036 34.8628 29.8156C34.8681 29.761 34.8827 29.7076 34.8854 29.649C34.9134 29.0876 33.9907 29.0876 34.0147 29.649C34.0227 29.7876 34.0321 29.909 34.0761 30.0396C34.1521 30.257 34.3494 30.3317 34.5281 30.2943C34.5281 30.309 34.5147 30.3143 34.5147 30.3303C34.5147 30.4623 34.5121 30.593 34.5067 30.725C34.4827 30.7237 34.4827 30.7277 34.4507 30.7237C34.2574 30.6983 34.1374 30.9236 34.1747 31.0863C34.2361 31.349 34.2721 31.5077 34.4374 31.7237C34.5787 31.9037 34.8334 31.909 35.0334 31.8796Z" fill="#969A92"/>
<path d="M16.0921 28.237C15.5841 28.237 15.5841 29.0237 16.0921 29.0237C16.5987 29.0237 16.5987 28.237 16.0921 28.237Z" fill="#969A92"/>
<path d="M10.428 27.4784C10.112 27.9904 10.3467 28.5051 10.696 28.9251C11.0387 29.3424 11.6414 28.7437 11.288 28.3344C11.0667 28.0757 11.0533 27.7544 10.876 27.4784C10.7693 27.3117 10.532 27.3091 10.428 27.4784Z" fill="#969A92"/>
<path d="M11.932 20.4704C11.904 21.009 12.7881 21.013 12.7721 20.4704C12.7654 20.229 12.9201 20.0397 12.9521 19.7904C12.9761 19.6037 12.7707 19.5197 12.6227 19.5384C12.1241 19.6077 11.9547 20.013 11.932 20.4704Z" fill="#969A92"/>
<path d="M14.7974 18.0237C14.9907 18.2037 15.0721 18.413 15.2507 18.5917C15.3361 18.6784 15.4881 18.681 15.5721 18.5917C15.9494 18.1984 15.6441 17.8037 15.3467 17.4757C15.0094 17.105 14.4307 17.6824 14.7974 18.0237Z" fill="#969A92"/>
<path d="M31.7307 25.6651C31.5241 25.6598 31.6134 25.6931 31.5747 25.4238C31.5494 25.2505 31.4854 25.0478 31.3121 24.9665C31.0427 24.8398 30.6148 24.8985 30.5588 25.2718C30.4268 26.1771 30.7881 26.7665 31.7307 26.8345C32.4801 26.8878 32.4867 25.6878 31.7307 25.6651Z" fill="#969A92"/>
<path d="M10.8188 40.4744C11.8388 39.8091 12.9507 38.9864 13.6014 37.9437C13.7427 37.7184 13.4641 37.4411 13.2374 37.5811C12.2227 38.2131 11.4574 39.2011 10.4854 39.9064C10.1494 40.1504 10.4574 40.7091 10.8188 40.4744Z" fill="#969A92"/>
<path d="M29.5601 30.1718C28.9574 30.5385 29.4961 31.4691 30.1134 31.1185C30.2494 31.0398 30.3654 30.8918 30.5201 30.8678C31.2228 30.7558 30.9308 29.6585 30.2241 29.7931C29.9254 29.8491 29.8028 30.0251 29.5601 30.1718Z" fill="#969A92"/>
<path d="M34.36 21.3984C34.3107 21.4517 34.26 21.5037 34.208 21.5557C34.1026 21.621 34.012 21.7144 33.9706 21.8397C33.9586 21.869 33.9506 21.901 33.94 21.9317C33.828 22.2584 34.1293 22.7037 34.492 22.6597C34.8173 22.6224 34.9867 22.4757 35.224 22.261C35.808 21.733 34.8973 20.817 34.36 21.3984Z" fill="#969A92"/>
<path d="M32.6041 17.2118C32.4921 17.2558 32.3814 17.2985 32.2694 17.3425C32.1454 17.3585 32.0521 17.4238 31.9854 17.5184C31.9587 17.5438 31.9481 17.5744 31.9307 17.6011C31.9227 17.6184 31.9121 17.6331 31.9067 17.6504C31.8507 17.7691 31.8454 17.8931 31.8867 18.0118C31.9307 18.2358 32.0841 18.4091 32.3547 18.4038C32.3681 18.4051 32.3814 18.4011 32.3948 18.4011C32.4348 18.3984 32.4667 18.4078 32.5121 18.3958C32.6427 18.3598 32.7721 18.3238 32.8987 18.2878C33.6027 18.0918 33.2641 16.9531 32.6041 17.2118Z" fill="#969A92"/>
<path d="M35.248 24.1571L35.2373 23.8691C35.2173 23.2958 34.3667 23.2958 34.344 23.8691L34.336 24.1571C34.316 24.7465 35.268 24.7465 35.248 24.1571Z" fill="#969A92"/>
<path d="M37.7333 25.5704C37.7386 25.709 37.748 25.8344 37.7866 25.969C37.9013 26.3704 38.484 26.3704 38.5973 25.969C38.6373 25.8344 38.6453 25.709 38.648 25.5704C38.66 24.9797 37.72 24.9797 37.7333 25.5704Z" fill="#969A92"/>
<path d="M38.0573 24.209C38.0653 24.573 38.024 24.8544 38.3107 25.1117C38.4427 25.2304 38.6213 25.2304 38.7547 25.1117C39.0413 24.8544 38.9973 24.573 39.0027 24.209C39.0173 23.5997 38.0467 23.5997 38.0573 24.209Z" fill="#969A92"/>
<path d="M38.3814 31.3504C38.3867 31.8264 38.2667 32.5637 38.6653 32.9184C38.788 33.0277 38.9533 33.0277 39.0787 32.9184C39.4773 32.5637 39.3547 31.8264 39.36 31.3504C39.368 30.7197 38.376 30.7197 38.3814 31.3504Z" fill="#969A92"/>
<path d="M36.1507 45.9544C36.2547 45.9597 36.344 45.8984 36.4027 45.8171C36.4667 46.0037 36.5147 46.1971 36.5867 46.3771C36.6907 46.6384 37.0774 46.6131 37.0867 46.3091C37.1947 43.1157 35.9654 39.6051 34.6627 36.5104C34.7534 36.6331 34.868 36.7291 35.0053 36.7904C35.0333 36.8864 35.072 36.9771 35.152 37.0664C35.3187 37.2464 35.5667 37.2397 35.7707 37.1451C35.928 37.0744 36.0573 36.9331 36.18 36.8171C36.5947 36.4304 36.116 35.8344 35.6747 35.9477C35.3747 35.9224 35.0987 35.8291 34.7907 35.8117C34.612 35.8024 34.4987 35.9691 34.504 36.1331C34.2693 35.5851 34.0373 35.0451 33.808 34.5304C33.752 34.4064 33.6667 34.3397 33.572 34.3144C33.572 34.3011 33.5747 34.2917 33.5747 34.2771C33.5187 33.9211 33.4493 33.5957 33.2973 33.2691C33.2253 33.1131 32.9574 33.1131 32.8854 33.2691C32.732 33.5957 32.6653 33.9211 32.6093 34.2771C32.5507 34.6504 32.7827 34.8437 33.032 34.8704C33.0413 34.9051 33.0414 34.9357 33.056 34.9717C33.912 36.9051 34.6147 38.8704 35.2 40.9024C35.6053 42.3077 35.8107 43.7877 36.204 45.1997C35.3907 44.1997 34.316 43.5011 33.6107 42.3304C32.7373 40.8824 32.4107 39.1411 32.5333 37.4704C32.5787 36.8731 31.6613 36.8824 31.608 37.4704C31.4467 39.3651 31.8947 41.1517 32.732 42.8451C33.3587 44.1184 34.6093 45.8771 36.1507 45.9544Z" fill="#969A92"/>
<path d="M40.5013 22.6184C40.6373 22.6677 40.7666 22.6771 40.9106 22.6918C41.5826 22.7531 41.5826 21.5877 40.9106 21.6491C40.7666 21.6624 40.6373 21.6717 40.5013 21.7224C40.06 21.8904 40.06 22.4504 40.5013 22.6184Z" fill="#969A92"/>
<path d="M12.1587 68.157C11.8361 67.9583 11.556 68.4543 11.864 68.6623C17.0934 72.1943 18.364 77.8743 21.6107 82.8423C21.7934 83.1236 22.2641 82.9503 22.1627 82.609C20.5321 77.105 17.1347 71.209 12.1587 68.157Z" fill="#969A92"/>
</svg>
